<svg width="28" height="28" viewBox="0 0 28 28" fill="none" xmlns="http://www.w3.org/2000/svg">
<g clip-path="url(#clip0_32_295)">
<path d="M9.33253 7.48126C9.15014 7.34689 8.89322 7.38594 8.75896 7.56843L7.94713 8.67142L7.66954 8.29014C7.53621 8.10705 7.27961 8.06658 7.09641 8.19996C6.91326 8.33334 6.87285 8.58999 7.00623 8.77314L7.48513 9.43081C7.59177 9.57721 7.76354 9.66487 7.94461 9.66537H7.94604C8.12661 9.66537 8.29817 9.57869 8.40525 9.43322L9.41981 8.05487C9.55401 7.87238 9.51496 7.61557 9.33253 7.48126V7.48126Z" fill="#AF2323"/>
<path d="M9.33252 14.2093C9.15014 14.0749 8.89322 14.114 8.75896 14.2965L7.94712 15.3994L7.66953 15.0182C7.53615 14.835 7.27966 14.7945 7.09635 14.9279C6.9132 15.0613 6.87279 15.3179 7.00617 15.5011L7.48507 16.1588C7.59165 16.3052 7.76343 16.3929 7.9445 16.3933C7.94499 16.3934 7.94548 16.3934 7.94592 16.3934C8.1265 16.3934 8.29811 16.3067 8.40519 16.1612L9.41975 14.7829C9.55401 14.6004 9.51496 14.3435 9.33252 14.2093V14.2093Z" fill="#AF2323"/>
<path d="M9.33252 20.6506C9.15014 20.5162 8.89322 20.5553 8.75896 20.7378L7.94712 21.8407L7.66953 21.4595C7.53615 21.2764 7.27966 21.2359 7.09635 21.3693C6.9132 21.5026 6.87279 21.7592 7.00617 21.9424L7.48507 22.6002C7.59165 22.7465 7.76343 22.8342 7.9445 22.8347C7.94499 22.8347 7.94548 22.8347 7.94592 22.8347C8.1265 22.8347 8.29811 22.748 8.40519 22.6025L9.41975 21.2242C9.55401 21.0418 9.51496 20.7849 9.33252 20.6506V20.6506Z" fill="#AF2323"/>
<path d="M12.4702 8.08671H17.5406C17.7672 8.08671 17.9509 7.90307 17.9509 7.67644C17.9509 7.44982 17.7672 7.26617 17.5406 7.26617H12.4702C12.2437 7.26617 12.06 7.44982 12.06 7.67644C12.06 7.90307 12.2437 8.08671 12.4702 8.08671Z" fill="#AF2323"/>
<path d="M12.4702 9.80066H15.0054C15.232 9.80066 15.4157 9.61702 15.4157 9.3904C15.4157 9.16377 15.232 8.98013 15.0054 8.98013H12.4702C12.2437 8.98013 12.06 9.16377 12.06 9.3904C12.06 9.61702 12.2437 9.80066 12.4702 9.80066Z" fill="#AF2323"/>
<path d="M12.4702 14.6714H15.8722C16.0988 14.6714 16.2825 14.4877 16.2825 14.2611C16.2825 14.0345 16.0988 13.8508 15.8722 13.8508H12.4702C12.2437 13.8508 12.06 14.0345 12.06 14.2611C12.06 14.4877 12.2437 14.6714 12.4702 14.6714V14.6714Z" fill="#AF2323"/>
<path d="M15.0054 16.3854C15.232 16.3854 15.4157 16.2017 15.4157 15.9751C15.4157 15.7485 15.232 15.5648 15.0054 15.5648H12.4702C12.2437 15.5648 12.06 15.7485 12.06 15.9751C12.06 16.2017 12.2437 16.3854 12.4702 16.3854H15.0054Z" fill="#AF2323"/>
<path d="M9.79382 5.90881H6.63321C6.05741 5.90881 5.5889 6.37732 5.5889 6.95313V10.1137C5.5889 10.6895 6.05741 11.158 6.63321 11.158H9.79382C10.3696 11.158 10.8381 10.6895 10.8381 10.1137V6.95313C10.8381 6.37732 10.3697 5.90881 9.79382 5.90881V5.90881ZM10.0177 10.1137C10.0177 10.2371 9.91725 10.3375 9.79387 10.3375H6.63326C6.50989 10.3375 6.40948 10.2372 6.40948 10.1137V6.95313C6.40948 6.82975 6.50989 6.72935 6.63326 6.72935H9.79387C9.91725 6.72935 10.0177 6.8297 10.0177 6.95313V10.1137Z" fill="#AF2323"/>
<path d="M9.79382 12.4935H6.63321C6.05741 12.4935 5.5889 12.962 5.5889 13.5378V16.6985C5.5889 17.2743 6.05741 17.7428 6.63321 17.7428H9.79382C10.3696 17.7428 10.8381 17.2743 10.8381 16.6985V13.5378C10.8381 12.962 10.3697 12.4935 9.79382 12.4935V12.4935ZM10.0177 16.6985C10.0177 16.8218 9.91725 16.9222 9.79387 16.9222H6.63326C6.50989 16.9222 6.40948 16.8219 6.40948 16.6985V13.5378C6.40948 13.4145 6.50989 13.3141 6.63326 13.3141H9.79387C9.91725 13.3141 10.0177 13.4144 10.0177 13.5378V16.6985Z" fill="#AF2323"/>
<path d="M9.79382 19.0781H6.63321C6.05741 19.0781 5.5889 19.5466 5.5889 20.1224V23.283C5.5889 23.8589 6.05741 24.3274 6.63321 24.3274H9.79382C10.3696 24.3274 10.8381 23.8589 10.8381 23.283V20.1224C10.8381 19.5466 10.3697 19.0781 9.79382 19.0781ZM10.0177 23.283C10.0177 23.4064 9.91725 23.5068 9.79387 23.5068H6.63326C6.50989 23.5068 6.40948 23.4065 6.40948 23.283V20.1224C6.40948 19.9991 6.50989 19.8987 6.63326 19.8987H9.79387C9.91725 19.8987 10.0177 19.999 10.0177 20.1224V23.283Z" fill="#AF2323"/>
<path d="M25.4435 7.01739L24.7924 6.60505C24.4543 6.39089 24.053 6.32138 23.6627 6.40905C23.2723 6.49682 22.9394 6.73137 22.7254 7.06951L22.1283 8.01298L21.2992 9.32302L20.3617 10.8046V4.6463C20.3617 4.2222 20.0167 3.87718 19.5926 3.87718H16.6528V3.0567H20.5884C20.9158 3.0567 21.1822 3.32303 21.1822 3.65045V7.20338C21.1822 7.43001 21.3659 7.61365 21.5925 7.61365C21.8191 7.61365 22.0028 7.43001 22.0028 7.20338V3.65045C22.0028 2.87066 21.3683 2.23617 20.5885 2.23617H16.568C16.4 1.83055 16.0002 1.54432 15.5346 1.54432H14.4748V1.13116C14.4748 0.5075 13.9673 0 13.3436 0H10.5196C9.89586 0 9.38842 0.5075 9.38842 1.13121V1.54437H8.32858C7.86297 1.54437 7.46326 1.83061 7.29531 2.23623H3.27474C2.4949 2.23623 1.86047 2.87066 1.86047 3.6505V26.5858C1.86047 27.3656 2.4949 28.0001 3.27474 28.0001H20.5885C21.3684 28.0001 22.0028 27.3656 22.0028 26.5858V17.3869C22.0028 17.1603 21.8191 16.9766 21.5925 16.9766C21.366 16.9766 21.1823 17.1603 21.1823 17.3869V26.5857C21.1823 26.9131 20.9159 27.1795 20.5885 27.1795H3.27474C2.94733 27.1795 2.68094 26.9131 2.68094 26.5857V3.65045C2.68094 3.32303 2.94733 3.0567 3.27474 3.0567H7.21038V3.87723H4.2706C3.8465 3.87723 3.50147 4.22226 3.50147 4.64636V25.5899C3.50147 26.014 3.8465 26.359 4.2706 26.359H19.5926C20.0167 26.359 20.3617 26.014 20.3617 25.5899V17.8476L24.4814 11.3378C24.4815 11.3377 24.4816 11.3375 24.4816 11.3374L25.3104 10.0278L25.9079 9.08376C26.3494 8.386 26.1411 7.45905 25.4435 7.01739V7.01739ZM23.8426 7.20962C24.0192 7.1698 24.2006 7.20136 24.3534 7.29821L25.0045 7.71061C25.32 7.91033 25.4142 8.32945 25.2145 8.64495L24.8365 9.24224L23.041 8.10523L23.4188 7.50832C23.5155 7.35536 23.666 7.24927 23.8426 7.20962V7.20962ZM16.0725 23.0912C15.9948 23.2138 15.9079 23.3294 15.8127 23.4376C15.6839 23.2649 15.5375 23.1086 15.3766 22.9708L23.0212 10.8988L23.5688 11.2456L16.0725 23.0912ZM13.271 25.538C13.2682 25.537 13.2646 25.5351 13.2632 25.5351C13.263 25.5351 13.2628 25.5351 13.2627 25.5353C14.1514 21.8446 13.7187 23.6414 13.8423 23.1283C14.3753 23.2174 14.8708 23.517 15.1968 23.986C13.0245 25.7365 13.3019 25.5099 13.271 25.538ZM22.6022 8.79856L24.3977 9.93557L24.0075 10.5522L22.212 9.41522L22.6022 8.79856ZM8.03086 2.6717C8.03113 2.66667 8.03146 2.66164 8.03157 2.65655C8.03162 2.6548 8.0314 2.65311 8.03146 2.65136C8.03736 2.49244 8.16818 2.3648 8.32858 2.3648H9.50387C9.89264 2.3648 10.209 2.04848 10.209 1.65971V1.13116C10.209 0.95982 10.3483 0.820477 10.5197 0.820477H13.3436C13.515 0.820477 13.6544 0.95982 13.6544 1.13116V1.65971C13.6544 2.04848 13.9707 2.3648 14.3595 2.3648H15.5347C15.6951 2.3648 15.826 2.49238 15.8319 2.65136C15.8319 2.65311 15.8317 2.6548 15.8318 2.65655C15.8319 2.66153 15.8322 2.66656 15.8325 2.67159V3.87718H8.03086V2.6717ZM4.32195 4.69771H19.5412V12.1011L15.2474 18.8863C15.1262 19.0778 15.1832 19.3313 15.3746 19.4524C15.5653 19.573 15.819 19.5174 15.9407 19.3251L21.7732 10.1085L22.3279 10.4598L14.6833 22.5318C14.4899 22.4452 14.2861 22.3798 14.0749 22.3372C14.1321 22.2049 14.1993 22.0768 14.277 21.9541L14.9148 20.9464C15.0359 20.7549 14.979 20.5015 14.7875 20.3803C14.596 20.2591 14.3426 20.3161 14.2214 20.5076L13.5837 21.5153C13.373 21.848 13.2194 22.2108 13.1272 22.5935C13.1272 22.5936 13.1271 22.5936 13.1271 22.5938L12.4661 25.3364C12.4497 25.4041 12.4421 25.4719 12.4423 25.5385H4.32195V4.69771ZM19.5412 25.5385H14.5782L15.9862 24.4039C16.2927 24.1569 16.5549 23.8629 16.7657 23.5301L19.5412 19.1442V25.5385Z" fill="#AF2323"/>
</g>
<defs>
<clipPath id="clip0_32_295">
<rect width="28" height="28" fill="white"/>
</clipPath>
</defs>
</svg>
