<svg width="28" height="28" viewBox="0 0 28 28" fill="none" xmlns="http://www.w3.org/2000/svg">
<g clip-path="url(#clip0)">
<path d="M0.686223 17.4491C0.839655 17.5557 1.00168 17.6494 1.17062 17.7291C1.37222 17.8323 1.71056 18.0049 1.73436 18.1258C1.76369 18.2853 1.74451 18.45 1.67929 18.5985C1.60976 18.7479 1.53696 18.8762 1.47396 18.9868C1.30316 19.2887 1.01709 19.7946 1.44829 20.1469C1.54909 20.2403 1.72316 20.3751 1.88182 20.4969C1.76502 20.7012 1.71219 20.9357 1.73016 21.1703C1.75492 21.3551 1.8551 21.5213 2.00689 21.6295C2.11049 21.7023 2.22109 21.7658 2.32982 21.8279C2.60609 21.9847 2.71389 22.0579 2.74982 22.2045C2.77575 22.3923 2.75982 22.5835 2.70316 22.7645C2.67562 22.8891 2.64902 23.0141 2.63316 23.1378C2.58682 23.5631 2.63936 23.9934 2.78669 24.395C2.9966 25.1365 3.66727 25.653 4.43776 25.6667C4.56637 25.6663 4.6946 25.6527 4.82042 25.6261C6.15359 25.31 7.46728 24.9169 8.75489 24.4487C9.80629 25.0656 10.4704 26.9416 10.6435 27.6458C10.6952 27.854 10.8821 28.0001 11.0966 28L22.81 27.9673C22.9584 27.967 23.0979 27.8961 23.1856 27.7764C23.2733 27.6566 23.2988 27.5023 23.2542 27.3607C23.1388 27.0445 22.9797 26.746 22.7815 26.474C22.6696 26.3127 22.5687 26.144 22.4796 25.9691C22.2682 25.5414 22.092 25.0972 21.9527 24.6409C21.6862 23.7394 21.5014 22.8157 21.4006 21.8811C21.2788 20.8001 21.3821 19.7057 21.704 18.6667H22.866C23.6392 18.6667 24.266 18.0399 24.266 17.2667V11.2C24.266 10.9423 24.057 10.7333 23.7993 10.7333H21.9158C21.9268 10.656 21.9324 10.5781 21.9326 10.5C21.9326 9.59793 21.2014 8.86667 20.2993 8.86667C19.3972 8.86667 18.666 9.59793 18.666 10.5C18.6662 10.5781 18.6718 10.656 18.6828 10.7333H17.266V9.317C17.5238 9.35372 17.7867 9.32894 18.0332 9.24467C18.5659 9.06323 18.9664 8.6184 19.0911 8.0696C19.2132 7.54403 19.0679 6.99206 18.7028 6.59476C18.3377 6.19746 17.8 6.0061 17.266 6.08347V4.2C17.266 3.94227 17.057 3.73333 16.7993 3.73333H10.7326C9.95942 3.73333 9.33262 4.36013 9.33262 5.13333V17.2667C9.33262 18.0399 9.95942 18.6667 10.7326 18.6667H20.724C20.4302 19.7499 20.3458 20.8792 20.4752 21.994C20.5829 22.9849 20.7793 23.9642 21.0623 24.92C21.2158 25.4216 21.4095 25.9101 21.6414 26.3807C21.7479 26.592 21.8687 26.7958 22.0031 26.9906L22.0344 27.0373L11.4494 27.0667C11.1396 25.9596 10.5773 24.9396 9.80676 24.0865L10.2268 23.9395C10.5394 23.8303 10.7751 23.7482 10.896 23.7095C12.8952 23.0771 13.8948 22.1667 13.8677 21.0028C13.8616 20.7451 13.6478 20.541 13.3901 20.5471C13.1323 20.5532 12.9283 20.767 12.9344 21.0247C12.9456 21.5049 12.5522 22.2054 10.6122 22.8191C10.4858 22.8597 10.2422 22.9446 9.91876 23.0575C9.57202 23.1789 9.13102 23.3329 8.64476 23.4981H8.64149C7.3282 23.9795 5.98818 24.3846 4.62816 24.7114C4.19389 24.7938 3.77174 24.5196 3.67056 24.0893C3.57086 23.8238 3.53334 23.539 3.56089 23.2568C3.57302 23.1588 3.59542 23.0617 3.61689 22.9642C3.71198 22.6416 3.72593 22.3004 3.65749 21.9711C3.52176 21.5424 3.20632 21.194 2.79322 21.0163L2.69662 20.9613C2.74701 20.8595 2.80719 20.7629 2.87629 20.6729C2.95458 20.5737 2.98929 20.447 2.97249 20.3217C2.95569 20.1965 2.88882 20.0834 2.78716 20.0083C2.67516 19.9262 2.41102 19.7283 2.21782 19.5725C2.24022 19.5319 2.26449 19.4871 2.28782 19.4465C2.36109 19.3181 2.44462 19.1688 2.52629 18.9961C2.67396 18.669 2.71746 18.3044 2.65089 17.9517C2.53889 17.3824 1.99336 17.1033 1.59576 16.8999C1.4615 16.8361 1.33273 16.7613 1.21076 16.6763C1.11153 16.6093 1.01845 16.5335 0.932623 16.45C0.932623 16.3791 1.00869 16.2073 1.36429 15.7747C2.20012 14.6987 2.91676 13.5352 3.50162 12.3046C3.61098 12.1118 3.67259 11.8956 3.68129 11.6741C3.63309 11.2051 3.38451 10.7797 2.99949 10.5075C2.81282 10.3343 2.63316 10.171 2.61216 10.0189C2.61525 9.90872 2.63999 9.80026 2.68496 9.69967C2.76102 9.49947 2.84876 9.30347 2.93696 9.107C3.12831 8.71243 3.28115 8.30032 3.39336 7.8764L3.44002 7.6776C3.53853 7.21106 3.66555 6.751 3.82036 6.3C4.18823 5.28465 4.7578 4.35426 5.49476 3.56487C6.38749 2.62033 7.79262 1.95207 9.67796 1.57733C11.1196 1.26079 12.5825 1.05007 14.0548 0.946867C16.1812 0.840648 18.2863 1.41313 20.066 2.5816V3.03333C20.066 3.21009 20.1658 3.37168 20.3239 3.45073C20.482 3.52978 20.6712 3.51272 20.8126 3.40667C21.1176 3.19151 21.5364 3.24521 21.7772 3.53033C21.9129 3.69989 21.9626 3.92256 21.9121 4.13373C21.8573 4.36352 21.6891 4.54949 21.466 4.627C21.2442 4.70511 20.9981 4.66747 20.8098 4.52667C20.6684 4.42226 20.4804 4.40616 20.3233 4.48499C20.1662 4.56383 20.0667 4.72424 20.066 4.9V7C20.066 7.51546 20.4838 7.93333 20.9993 7.93333H23.0993C23.276 7.93333 23.4376 7.83346 23.5167 7.67537C23.5957 7.51727 23.5787 7.32807 23.4726 7.18667C23.256 6.89788 23.2946 6.49174 23.5616 6.24884C23.8286 6.00594 24.2366 6.00594 24.5036 6.24884C24.7707 6.49174 24.8092 6.89788 24.5926 7.18667C24.4866 7.32807 24.4695 7.51727 24.5486 7.67537C24.6276 7.83346 24.7892 7.93333 24.966 7.93333H27.5326C27.7904 7.93333 27.9993 7.7244 27.9993 7.46667V1.4C27.9993 0.626801 27.3725 0 26.5993 0H20.5326C20.2749 0 20.066 0.208934 20.066 0.466667V1.46393C18.2272 0.410022 16.1243 -0.0931121 14.0077 0.0144667C12.4892 0.119788 10.9805 0.336279 9.49362 0.6622C7.38942 1.0822 5.86016 1.82 4.81622 2.9232C3.99275 3.80435 3.35604 4.84298 2.94442 5.9766C2.77636 6.4644 2.63828 6.96201 2.53096 7.46667L2.48429 7.6636C2.38469 8.02961 2.25111 8.38551 2.08529 8.72667C1.99196 8.93947 1.89489 9.15227 1.81136 9.37253C1.70395 9.61772 1.66152 9.88645 1.68816 10.1528C1.78206 10.571 2.02343 10.9414 2.36809 11.1963C2.59629 11.4053 2.74609 11.5528 2.74796 11.6811C2.73126 11.7521 2.70455 11.8203 2.66862 11.8837C2.10978 13.0602 1.42524 14.1729 0.626957 15.2021C0.288623 15.6137 -0.0660432 16.0939 0.00862349 16.5746C0.107612 16.9454 0.351882 17.2607 0.686223 17.4491ZM10.266 5.13333C10.266 4.8756 10.4749 4.66667 10.7326 4.66667H16.3326V6.76667C16.3326 6.94343 16.4325 7.10502 16.5906 7.18407C16.7487 7.26311 16.9379 7.24606 17.0793 7.14C17.3842 6.92484 17.8031 6.97854 18.0439 7.26367C18.1795 7.43322 18.2293 7.6559 18.1788 7.86707C18.124 8.09685 17.9558 8.28283 17.7326 8.36033C17.5101 8.43841 17.2634 8.40006 17.0751 8.25813C16.9334 8.15435 16.7455 8.13887 16.5888 8.21807C16.4321 8.29727 16.3331 8.45774 16.3326 8.63333V10.7333H14.9168C14.9529 10.4757 14.928 10.2132 14.844 9.96707C14.6629 9.43395 14.2183 9.03293 13.6694 8.90773C13.1838 8.79479 12.6733 8.90975 12.283 9.21992C11.8928 9.53009 11.6655 10.0015 11.666 10.5C11.6662 10.5781 11.6718 10.656 11.6828 10.7333H10.266V5.13333ZM10.266 17.2667V11.6667H12.366C12.5427 11.6667 12.7043 11.5668 12.7834 11.4087C12.8624 11.2506 12.8453 11.0614 12.7393 10.92C12.5137 10.6176 12.5684 10.1907 12.863 9.95493C13.0327 9.81938 13.2556 9.76978 13.4668 9.82053C13.6967 9.87497 13.8827 10.0433 13.9596 10.2667C14.0383 10.489 13.9997 10.736 13.857 10.9237C13.7529 11.0655 13.7373 11.2537 13.8166 11.4106C13.896 11.5675 14.0568 11.6665 14.2326 11.6667H16.3326V13.0835C15.6995 12.9919 15.0711 13.2785 14.7251 13.8166C14.3791 14.3547 14.3791 15.0453 14.7251 15.5834C15.0711 16.1215 15.6995 16.4081 16.3326 16.3165V17.7333H10.7326C10.4749 17.7333 10.266 17.5244 10.266 17.2667ZM17.007 15.2133C16.848 15.1353 16.6587 15.1534 16.5174 15.26C16.2286 15.4766 15.8225 15.4381 15.5796 15.171C15.3367 14.904 15.3367 14.496 15.5796 14.229C15.8225 13.9619 16.2286 13.9234 16.5174 14.14C16.6588 14.2461 16.848 14.2631 17.0061 14.1841C17.1642 14.105 17.2641 13.9434 17.2641 13.7667V11.6667H19.3641C19.5408 11.6667 19.7024 11.5668 19.7815 11.4087C19.8605 11.2506 19.8435 11.0614 19.7374 10.92C19.5208 10.6312 19.5594 10.2251 19.8264 9.98217C20.0934 9.73927 20.5014 9.73927 20.7684 9.98217C21.0355 10.2251 21.074 10.6312 20.8574 10.92C20.7514 11.0614 20.7343 11.2506 20.8134 11.4087C20.8924 11.5668 21.054 11.6667 21.2308 11.6667H23.3326V17.2667C23.3326 17.5244 23.1237 17.7333 22.866 17.7333H17.266V15.6333C17.2667 15.4554 17.1663 15.2925 17.007 15.2133ZM20.9993 0.933333H26.5993C26.857 0.933333 27.066 1.14227 27.066 1.4V7H25.6492C25.6601 6.9227 25.6657 6.84474 25.666 6.76667C25.666 5.8646 24.9347 5.13333 24.0326 5.13333C23.1306 5.13333 22.3993 5.8646 22.3993 6.76667C22.3995 6.84474 22.4051 6.9227 22.4161 7H20.9993V5.58367C21.2571 5.62041 21.52 5.59562 21.7665 5.51133C22.2992 5.32989 22.6997 4.88507 22.8244 4.33627C22.9465 3.81069 22.8012 3.25872 22.4361 2.86142C22.071 2.46412 21.5333 2.27277 20.9993 2.35013V0.933333Z" fill="#4EAAC8"/>
<path d="M5.21079 8.30246L5.25746 8.09992C5.34028 7.70987 5.44529 7.32487 5.57199 6.94679C5.85272 6.1668 6.28956 5.45225 6.85579 4.84679C7.21895 4.48158 7.6502 4.19112 8.12512 3.99186C8.28252 3.9271 8.39218 3.78178 8.41127 3.61265C8.43037 3.44353 8.35588 3.27742 8.21688 3.17919C8.07789 3.08096 7.89644 3.0662 7.74339 3.14066C7.15613 3.38938 6.62375 3.75159 6.17679 4.20653C5.52334 4.90399 5.01915 5.72751 4.69512 6.62666C4.5543 7.0412 4.4379 7.46363 4.34652 7.89179L4.29986 8.09712C4.27199 8.21813 4.29351 8.34525 4.35963 8.45035C4.42576 8.55545 4.53105 8.62987 4.65219 8.65712C4.68602 8.66489 4.72062 8.6688 4.75532 8.66879C4.97429 8.66866 5.16371 8.5163 5.21079 8.30246Z" fill="#4EAAC8"/>
<path d="M4.19999 10.2667C4.45772 10.2667 4.66665 10.0577 4.66665 9.80001C4.66665 9.54228 4.45772 9.33334 4.19999 9.33334C3.94225 9.33334 3.73332 9.54228 3.73332 9.80001C3.73332 10.0577 3.94225 10.2667 4.19999 10.2667Z" fill="#4EAAC8"/>
</g>
<defs>
<clipPath id="clip0">
<rect width="28" height="28" fill="white"/>
</clipPath>
</defs>
</svg>
