<svg width="40" height="40" viewBox="0 0 40 40" fill="none" xmlns="http://www.w3.org/2000/svg">
<path d="M8.3871 9.46234C9.4542 9.46234 10.3226 8.60602 10.3226 7.55374C10.3226 6.50147 9.4542 5.64514 8.3871 5.64514C7.32 5.64514 6.45161 6.50147 6.45161 7.55374C6.45161 8.60602 7.32 9.46234 8.3871 9.46234ZM8.3871 6.91754C8.74323 6.91754 9.03226 7.2032 9.03226 7.55374C9.03226 7.90429 8.74323 8.18994 8.3871 8.18994C8.03097 8.18994 7.74194 7.90429 7.74194 7.55374C7.74194 7.2032 8.03097 6.91754 8.3871 6.91754Z" fill="#4EAAC8"/>
<path d="M8.38709 12.0072C10.8768 12.0072 12.9032 10.0095 12.9032 7.55375C12.9032 5.09801 10.8768 3.10034 8.38709 3.10034C5.89742 3.10034 3.87096 5.09801 3.87096 7.55375C3.87096 10.0095 5.89742 12.0072 8.38709 12.0072ZM8.38709 4.37274C10.1658 4.37274 11.6129 5.79974 11.6129 7.55375C11.6129 9.30775 10.1658 10.7348 8.38709 10.7348C6.60838 10.7348 5.16129 9.30775 5.16129 7.55375C5.16129 5.79974 6.60838 4.37274 8.38709 4.37274Z" fill="#4EAAC8"/>
<path d="M16.7742 8.18994H18.0645V9.46234H16.7742V8.18994Z" fill="#4EAAC8"/>
<path d="M19.3548 8.18994H20.6452V9.46234H19.3548V8.18994Z" fill="#4EAAC8"/>
<path d="M21.9355 8.18994H23.2258V9.46234H21.9355V8.18994Z" fill="#4EAAC8"/>
<path d="M15.4839 22.8226C15.4839 21.7703 14.6155 20.914 13.5484 20.914C12.4813 20.914 11.6129 21.7703 11.6129 22.8226C11.6129 23.8748 12.4813 24.7312 13.5484 24.7312C14.6155 24.7312 15.4839 23.8748 15.4839 22.8226ZM12.9032 22.8226C12.9032 22.4714 13.1923 22.1864 13.5484 22.1864C13.9045 22.1864 14.1936 22.4714 14.1936 22.8226C14.1936 23.1738 13.9045 23.4588 13.5484 23.4588C13.1923 23.4588 12.9032 23.1738 12.9032 22.8226Z" fill="#4EAAC8"/>
<path d="M11.6645 32.3306C15.2516 31.9845 18.0645 28.9943 18.0645 25.3674V19.5245C18.8135 19.2611 19.3548 18.5613 19.3548 17.733C19.3548 14.3942 17.2335 11.4778 14.0548 10.3937C13.9258 10.1603 13.9897 9.93059 14.0213 9.85489C14.06 9.76327 14.2174 9.46235 14.6174 9.46235H15.4839V5.64515H14.6174C14.2174 5.64515 14.06 5.34422 14.0206 5.25198C13.9819 5.15973 13.8774 4.83781 14.16 4.55979L14.7742 3.9554L12.0374 1.256L11.4239 1.85975C11.1419 2.13841 10.8155 2.03598 10.7206 1.99781C10.6277 1.95964 10.3226 1.8044 10.3226 1.40996V0.555542H6.45161V1.40996C6.45161 1.8044 6.14645 1.95964 6.05355 1.99781C5.95935 2.03662 5.6329 2.13841 5.34968 1.85912L4.73677 1.256L2 3.9554L2.61355 4.55915C2.89613 4.83781 2.79161 5.16036 2.75355 5.25198C2.71419 5.34422 2.55677 5.64515 2.15677 5.64515H1.29032V9.46235H2.15677C2.55677 9.46235 2.71419 9.76327 2.75355 9.85552C2.79226 9.94777 2.89677 10.2697 2.61419 10.5477L2 11.1521L3.12064 12.2572C1.18194 13.688 0 15.9586 0 18.3692V23.4588C0 27.0247 2.14129 30.0994 5.21806 31.5207C4.37355 32.0112 3.77161 32.879 3.68581 33.8956L3.16968 40H14.9L14.6619 37.4157C14.469 35.3284 13.3258 33.4904 11.6645 32.3306V32.3306ZM10.9677 31.0932H9.03226C8.26903 31.0932 7.5329 30.9793 6.83613 30.7757C7.42645 29.0287 7.74194 27.2155 7.74194 25.3674V24.7312H6.45161C5.74 24.7312 5.16129 24.1605 5.16129 23.4588C5.16129 22.757 5.74 22.1864 6.45161 22.1864H7.74194V21.5502C7.74194 20.3783 8.58839 19.3604 9.7529 19.1301L9.78645 19.1237C10.4658 19.4558 11.22 19.6416 12.0032 19.6416H16.7742V25.3674C16.7742 26.0373 16.651 26.6779 16.4355 27.276H14.991C14.3465 27.276 13.7677 26.9229 13.48 26.3554L12.3258 26.9248C12.8342 27.9255 13.8548 28.5484 14.991 28.5484H15.7923C14.7497 30.0816 12.9768 31.0932 10.9677 31.0932ZM2.58065 8.23385V6.87365C3.19161 6.74387 3.69613 6.33352 3.94516 5.7393C4.19484 5.14509 4.1329 4.50444 3.79355 3.98594L4.76903 3.024C5.29484 3.35801 5.94452 3.42035 6.54774 3.17351C7.14968 2.9273 7.56581 2.43043 7.69742 1.82794H9.07742C9.20903 2.43043 9.62516 2.9273 10.2271 3.17351C10.8303 3.41972 11.48 3.35928 12.0058 3.024L12.9813 3.98594C12.6419 4.5038 12.58 5.14509 12.8297 5.7393C13.0781 6.33352 13.5826 6.74387 14.1935 6.87365V8.23448C13.5826 8.36427 13.0781 8.77462 12.829 9.36883C12.5794 9.96304 12.6413 10.6037 12.9806 11.1222L12.0052 12.0841C11.4794 11.7508 10.8297 11.6884 10.2265 11.9346C9.62387 12.1808 9.20839 12.6771 9.07677 13.2802H7.69677C7.56516 12.6777 7.14903 12.1808 6.5471 11.9346C5.94516 11.6891 5.29419 11.7495 4.76839 12.0841L3.79355 11.1216C4.1329 10.6037 4.19484 9.96241 3.94516 9.36819C3.69613 8.77398 3.19161 8.36363 2.58065 8.23385V8.23385ZM1.29032 23.4588V18.3692C1.29032 16.2977 2.34064 14.3547 4.04645 13.1701L4.73677 13.8509L5.35032 13.2471C5.6329 12.9691 5.96 13.0709 6.05355 13.1091C6.1471 13.1472 6.45161 13.3031 6.45161 13.6975V14.552H10.3226V13.6975C10.3226 13.3031 10.6277 13.1479 10.7206 13.1097C10.8142 13.0715 11.1406 12.9685 11.4245 13.2484L12.0374 13.8515L14.1303 11.787C16.5097 12.8151 18.0645 15.1188 18.0645 17.733C18.0645 18.0835 17.7755 18.3692 17.4194 18.3692H12.0032C10.7626 18.3692 9.61161 17.7616 8.92387 16.7437L7.85032 17.4492C8.04452 17.7361 8.27097 17.9932 8.51484 18.2292C7.46581 18.763 6.71032 19.7542 6.5071 20.9133H6.45161C5.02839 20.9133 3.87097 22.0547 3.87097 23.4581C3.87097 24.8571 5.02129 25.9959 6.43871 26.0029C6.37935 27.4719 6.10258 28.9136 5.63806 30.3094C3.06839 29.0669 1.29032 26.4674 1.29032 23.4588V23.4588ZM4.57226 38.7276L4.97097 34.0012C5.04903 33.0845 5.84129 32.3656 6.77419 32.3656C7.7071 32.3656 8.49935 33.0845 8.57742 34.0012L8.97613 38.7276H4.57226ZM10.271 38.7276L9.86258 33.8956C9.82323 33.4338 9.67935 33.0024 9.45419 32.622C11.5852 33.3428 13.1671 35.259 13.3761 37.5315L13.4871 38.7276H10.271Z" fill="#4EAAC8"/>
<path d="M26.4516 20.914C25.3845 20.914 24.5161 21.7703 24.5161 22.8226C24.5161 23.8748 25.3845 24.7312 26.4516 24.7312C27.5187 24.7312 28.3871 23.8748 28.3871 22.8226C28.3871 21.7703 27.5187 20.914 26.4516 20.914ZM26.4516 23.4588C26.0955 23.4588 25.8065 23.1738 25.8065 22.8226C25.8065 22.4714 26.0955 22.1864 26.4516 22.1864C26.8077 22.1864 27.0968 22.4714 27.0968 22.8226C27.0968 23.1738 26.8077 23.4588 26.4516 23.4588Z" fill="#4EAAC8"/>
<path d="M35.0264 12.7216L36.9168 10.8575C38.0735 9.71747 38.7097 8.20268 38.7097 6.58991C38.7097 3.26258 35.9645 0.555542 32.5903 0.555542H30.6361C27.2613 0.555542 24.5161 3.26258 24.5161 6.58991C24.5161 8.20204 25.1523 9.71747 26.3084 10.8569L27.4748 12.0072H26.8426C25.4484 12.0072 24.0987 11.6044 22.9387 10.8416L22.4019 10.4885L21.5019 11.8195C20.9413 12.6484 20.6452 13.6136 20.6452 14.6105C20.6452 16.2188 21.4174 17.6496 22.6116 18.5708C22.1819 19.0874 21.9355 19.737 21.9355 20.4279V25.3674C21.9355 28.9944 24.7484 31.9845 28.3355 32.3306C26.6742 33.4904 25.5303 35.3284 25.3381 37.4157L25.1 40H36.8303L36.3142 33.8956C36.2284 32.879 35.6264 32.0112 34.7819 31.5207C37.8587 30.0994 40 27.0247 40 23.4588V20.2778C40 16.9982 38.0264 14.0398 35.0264 12.7216V12.7216ZM29.6774 6.91755H29.0323C28.6761 6.91755 28.3871 6.6319 28.3871 6.28135C28.3871 5.9308 28.6761 5.64515 29.0323 5.64515C29.3884 5.64515 29.6774 5.9308 29.6774 6.28135V6.91755ZM32.2581 12.0072H30.9677V8.18995H32.2581V12.0072ZM33.5484 13.2796V13.9158H29.6774V13.2796H33.5484ZM33.4297 15.1882C33.1626 15.9268 32.4529 16.4606 31.6129 16.4606C30.7729 16.4606 30.0632 15.9268 29.7961 15.1882H33.4297ZM25.8064 6.58991C25.8064 3.96431 27.9723 1.82794 30.6355 1.82794H32.5897C35.2535 1.82794 37.4194 3.96431 37.4194 6.58991C37.4194 7.86231 36.9174 9.05773 36.0052 9.95732L33.9264 12.0072H33.5484V8.18995H34.1935C35.2606 8.18995 36.129 7.33363 36.129 6.28135C36.129 5.22907 35.2606 4.37275 34.1935 4.37275C33.1264 4.37275 32.2581 5.22907 32.2581 6.28135V6.91755H30.9677V6.28135C30.9677 5.22907 30.0994 4.37275 29.0323 4.37275C27.9652 4.37275 27.0968 5.22907 27.0968 6.28135C27.0968 7.33363 27.9652 8.18995 29.0323 8.18995H29.6774V12.0072H29.2994L27.2206 9.95732C26.3084 9.05837 25.8064 7.86231 25.8064 6.58991V6.58991ZM33.5484 6.91755V6.28135C33.5484 5.9308 33.8374 5.64515 34.1935 5.64515C34.5497 5.64515 34.8387 5.9308 34.8387 6.28135C34.8387 6.6319 34.5497 6.91755 34.1935 6.91755H33.5484ZM24.2077 28.5484H25.009C26.1458 28.5484 27.1664 27.9255 27.6742 26.9242L26.52 26.3548C26.2316 26.9229 25.6535 27.276 25.009 27.276H23.5645C23.349 26.6779 23.2258 26.0373 23.2258 25.3674V20.4279C23.2258 19.9698 23.42 19.548 23.7458 19.2376C24.3606 19.4971 25.0368 19.6416 25.7471 19.6416H30.3226C31.3897 19.6416 32.2581 20.4979 32.2581 21.5502V22.1864H33.5484C34.26 22.1864 34.8387 22.757 34.8387 23.4588C34.8387 24.1605 34.26 24.7312 33.5484 24.7312H32.2581V25.3674C32.2581 27.2155 32.5735 29.0287 33.1639 30.7757C32.4671 30.9793 31.731 31.0932 30.9677 31.0932H29.0323C27.0232 31.0932 25.2503 30.0816 24.2077 28.5484ZM30.1374 33.8956L29.729 38.7276H26.5129L26.6239 37.5315C26.8329 35.259 28.4148 33.3428 30.5464 32.622C30.3206 33.0024 30.1761 33.4344 30.1374 33.8956V33.8956ZM35.4277 38.7276H31.0239L31.4226 34.0013C31.5006 33.0845 32.2929 32.3656 33.2258 32.3656C34.1587 32.3656 34.951 33.0845 35.029 34.0013L35.4277 38.7276ZM38.7097 23.4588C38.7097 26.4674 36.9316 29.0669 34.3619 30.31C33.8974 28.9142 33.6206 27.4726 33.5613 26.0036C34.9787 25.9966 36.129 24.8578 36.129 23.4588C36.129 22.0553 34.9716 20.914 33.5484 20.914H33.4832C33.1832 19.4641 31.8806 18.3692 30.3226 18.3692H25.7471C23.6452 18.3692 21.9355 16.6832 21.9355 14.6105C21.9355 13.8655 22.1568 13.1447 22.5755 12.5257L22.7735 12.2336C24.0148 12.9195 25.409 13.2796 26.8419 13.2796H28.3871V14.552C28.3871 16.306 29.8342 17.733 31.6129 17.733C33.3916 17.733 34.8387 16.306 34.8387 14.552V14.0475C37.1852 15.2301 38.7097 17.6286 38.7097 20.2778V23.4588Z" fill="#4EAAC8"/>
<path d="M14.3826 34.4606L15.2948 35.3602L16.129 34.5376V40H17.4194V34.5376L18.2535 35.3602L19.1658 34.4606L16.7742 32.1022L14.3826 34.4606Z" fill="#4EAAC8"/>
<path d="M21.4794 30.2706L22.3916 29.371L20 27.0126L17.6084 29.371L18.5206 30.2706L19.3548 29.448V40H20.6452V29.448L21.4794 30.2706Z" fill="#4EAAC8"/>
<path d="M25.6174 34.4606L23.2258 32.1022L20.8342 34.4606L21.7465 35.3602L22.5806 34.5376V40H23.871V34.5376L24.7052 35.3602L25.6174 34.4606Z" fill="#4EAAC8"/>
</svg>
