<svg width="45" height="45" viewBox="0 0 45 45" fill="none" xmlns="http://www.w3.org/2000/svg">
<path d="M7.96131 14.3997C7.59726 14.3997 7.30213 14.6947 7.30213 15.0589V16.6288C7.30213 16.9929 7.59726 17.288 7.96131 17.288C8.32535 17.288 8.62049 16.9929 8.62049 16.6288V15.0589C8.62049 14.6947 8.32535 14.3997 7.96131 14.3997Z" fill="#4EAAC8"/>
<path d="M16.2838 17.288C16.6478 17.288 16.9429 16.9929 16.9429 16.6288V15.0589C16.9429 14.6947 16.6478 14.3997 16.2838 14.3997C15.9197 14.3997 15.6246 14.6947 15.6246 15.0589V16.6288C15.6246 16.9929 15.9197 17.288 16.2838 17.288Z" fill="#4EAAC8"/>
<path d="M12.1225 21.7633C13.4844 21.7633 14.5922 20.6555 14.5922 19.2935C14.5922 18.9294 14.2971 18.6343 13.933 18.6343C13.569 18.6343 13.2739 18.9294 13.2739 19.2935C13.2739 19.9284 12.7574 20.445 12.1225 20.445C11.4877 20.445 10.9711 19.9284 10.9711 19.2935C10.9711 18.9294 10.676 18.6343 10.3119 18.6343C9.9479 18.6343 9.65276 18.9294 9.65276 19.2935C9.65285 20.6555 10.7607 21.7633 12.1225 21.7633Z" fill="#4EAAC8"/>
<path d="M42.3438 37.2007C43.7135 36.3678 44.6302 34.8611 44.6302 33.1441C44.6302 30.5281 42.502 28.4 39.886 28.4C37.8433 28.4 36.0981 29.6977 35.4313 31.512C34.7645 29.6977 33.0192 28.4 30.9764 28.4C28.3605 28.4 26.2323 30.5281 26.2323 33.1441C26.2323 34.8611 27.149 36.3679 28.5187 37.2007C26.937 38.0714 25.8625 39.7542 25.8625 41.6838V44.1556C25.8625 44.5197 26.1576 44.8148 26.5217 44.8148H35.4312H44.3408C44.7049 44.8148 45 44.5197 45 44.1556V41.6838C45 39.7543 43.9255 38.0714 42.3438 37.2007ZM39.886 29.7184C41.7749 29.7184 43.3118 31.2552 43.3118 33.1442C43.3118 35.0332 41.775 36.57 39.886 36.57C37.997 36.57 36.4603 35.0332 36.4603 33.1442C36.4603 31.2552 37.997 29.7184 39.886 29.7184ZM37.4284 37.2007C36.5931 37.6605 35.9001 38.3472 35.4313 39.1768C34.9626 38.3472 34.2696 37.6605 33.4343 37.2007C34.3467 36.6459 35.0581 35.792 35.4313 34.7762C35.8046 35.792 36.516 36.6459 37.4284 37.2007ZM27.5508 33.1441C27.5508 31.2552 29.0876 29.7183 30.9766 29.7183C32.8656 29.7183 34.4024 31.2551 34.4024 33.1441C34.4024 35.0332 32.8656 36.5699 30.9766 36.5699C29.0876 36.5699 27.5508 35.0332 27.5508 33.1441ZM27.1811 41.6838C27.1811 39.5909 28.8837 37.8883 30.9766 37.8883C33.0695 37.8883 34.7723 39.5909 34.7723 41.6838V43.4965H27.1811V41.6838H27.1811ZM43.6816 43.4965H36.0905V41.6838C36.0905 39.5909 37.7931 37.8883 39.8861 37.8883C41.979 37.8883 43.6816 39.5909 43.6816 41.6838V43.4965Z" fill="#4EAAC8"/>
<path d="M30.9765 17.2879C32.3567 17.2879 33.4796 16.1651 33.4796 14.7849V13.3913C33.69 12.81 34.0257 12.2703 34.4575 11.8263C37.4007 8.80095 35.3107 3.74926 31.1667 3.59071C29.8305 3.53885 28.5695 4.02023 27.6099 4.94387C25.6514 6.82877 25.6336 9.91286 27.4961 11.8269C27.9276 12.2703 28.2631 12.8098 28.4736 13.3913V14.7848C28.4736 16.1651 29.5964 17.2879 30.9765 17.2879V17.2879ZM32.1612 14.785C32.1612 15.4382 31.6297 15.9697 30.9765 15.9697C30.3233 15.9697 29.7918 15.4382 29.7918 14.785V13.934H32.1611V14.785H32.1612ZM28.524 5.89388C29.2231 5.22108 30.1458 4.87083 31.1162 4.90819C34.1366 5.02394 35.6549 8.70497 33.5125 10.9073C33.0326 11.4005 32.6426 11.9844 32.3682 12.6157H29.5849C29.3106 11.9842 28.9205 11.4005 28.4409 10.9075C27.0812 9.51032 27.1008 7.26366 28.524 5.89388V5.89388Z" fill="#4EAAC8"/>
<path d="M30.9765 2.90049C31.3407 2.90049 31.6357 2.60545 31.6357 2.24131V0.708679C31.6357 0.344548 31.3407 0.0494995 30.9765 0.0494995C30.6124 0.0494995 30.3173 0.344548 30.3173 0.708679V2.24131C30.3173 2.60545 30.6125 2.90049 30.9765 2.90049Z" fill="#4EAAC8"/>
<path d="M26.9138 3.72782C27.1714 3.98525 27.5886 3.98516 27.846 3.72782C28.1035 3.4703 28.1035 3.05299 27.846 2.79556L26.7623 1.71187C26.5048 1.45452 26.0875 1.45452 25.8301 1.71187C25.5727 1.96939 25.5727 2.38669 25.8301 2.64412L26.9138 3.72782Z" fill="#4EAAC8"/>
<path d="M35.0394 3.72782L36.123 2.64412C36.3805 2.3866 36.3805 1.9693 36.123 1.71187C35.8655 1.45452 35.4482 1.45452 35.1908 1.71187L34.1071 2.79556C33.8497 3.05308 33.8497 3.47038 34.1071 3.72782C34.3646 3.98525 34.7818 3.98516 35.0394 3.72782V3.72782Z" fill="#4EAAC8"/>
<path d="M37.0102 6.95084H38.5428C38.907 6.95084 39.202 6.65579 39.202 6.29166C39.202 5.92753 38.907 5.63248 38.5428 5.63248H37.0102C36.6461 5.63248 36.351 5.92753 36.351 6.29166C36.351 6.65579 36.6461 6.95084 37.0102 6.95084Z" fill="#4EAAC8"/>
<path d="M19.7854 27.3924H18.8082L16.314 26.0373V24.871C16.9448 24.5476 17.5406 24.1517 18.0861 23.6854C19.5897 22.4003 20.6381 20.6649 21.0756 18.7538C22.8343 18.5419 24.2017 17.0402 24.2017 15.2253C24.2017 14.259 23.8199 13.3836 23.196 12.7432C23.2855 12.6307 23.3393 12.4885 23.3393 12.3335C23.3393 6.74201 23.3419 7.13515 23.3331 6.94645C23.4015 6.95445 23.3145 6.95137 24.9428 6.95137C25.307 6.95137 25.602 6.65632 25.602 6.29219C25.602 5.92806 25.307 5.63301 24.9428 5.63301H23.4102C23.3083 5.63301 23.2123 5.65674 23.1262 5.69805C22.5078 3.56222 20.6068 1.94872 18.3197 1.76881C17.5155 0.686526 16.2603 0.0501099 14.8968 0.0501099H7.96219C4.07118 0.0501099 0.905625 3.21567 0.905625 7.10667V12.3336C0.905625 12.4886 0.959414 12.6307 1.04889 12.7433C0.425039 13.3836 0.0431543 14.2592 0.0431543 15.2255C0.0431543 17.0404 1.41056 18.542 3.16934 18.7539C3.60686 20.665 4.65521 22.4004 6.15876 23.6856C6.7043 24.1519 7.3002 24.5478 7.93099 24.8712V26.0375L5.43691 27.3924H4.48585C2.01234 27.3924 0 29.4048 0 31.8782V38.4408C0 38.8049 0.295137 39.1 0.65918 39.1H4.24143C4.60547 39.1 4.90061 38.8049 4.90061 38.4408C4.90061 38.0767 4.60547 37.7816 4.24143 37.7816H1.31836V31.8782C1.31836 30.1317 2.73929 28.7108 4.48585 28.7108H5.38576L9.42302 31.7199C9.56619 31.8266 9.75234 31.8714 9.92927 31.8409L10.2927 33.265L9.40544 37.7816H7.3176C6.95355 37.7816 6.65842 38.0767 6.65842 38.4408C6.65842 38.8049 6.95355 39.1 7.3176 39.1H23.6121C23.9762 39.1 24.2713 38.8049 24.2713 38.4408V31.8782C24.2712 29.4048 22.2588 27.3924 19.7854 27.3924V27.3924ZM6.82453 28.1389L8.55545 27.1984L11.1023 28.8963L9.74382 30.3147L6.82453 28.1389ZM12.1225 29.7372L13.2038 30.8662L12.7647 32.587H11.4803L11.0412 30.8662C12.1444 29.7143 11.8725 29.9982 12.1225 29.7372ZM11.5105 33.9054H12.7342L13.4957 37.7816H10.749L11.5105 33.9054ZM13.1426 28.8963C16.0334 26.9692 15.4328 27.3696 15.6895 27.1984L17.4204 28.1389L14.5012 30.3147L13.1426 28.8963ZM2.22407 7.1065C2.22407 3.94243 4.79821 1.36829 7.96228 1.36829H14.8968C15.9217 1.36829 16.858 1.88869 17.4017 2.76039C17.5204 2.95068 17.7276 3.06748 17.9517 3.07065C20.1956 3.10229 22.0211 4.95362 22.0211 7.19746V11.6743C21.1302 11.6743 20.3661 11.6743 19.4522 11.6743C18.6548 11.6743 17.9117 11.3153 17.4135 10.6895C17.1715 10.3855 16.733 10.3626 16.4578 10.6092C15.6915 11.296 14.7029 11.6743 13.6739 11.6743C13.1976 11.6743 2.71828 11.6743 2.22416 11.6743V7.1065H2.22407ZM4.36526 18.0084C4.3098 17.6768 4.0144 17.4434 3.68771 17.4585C2.40899 17.5097 1.36169 16.4835 1.36169 15.2252C1.36169 14.0252 2.2972 13.0468 3.49374 12.9926H13.6739C14.8125 12.9926 15.9134 12.6408 16.8346 11.9915C17.5489 12.6339 18.4732 12.9926 19.4522 12.9926H20.7514C21.948 13.0468 22.8835 14.0252 22.8835 15.2252C22.8835 16.4839 21.8357 17.5097 20.5574 17.4585C20.2261 17.4432 19.9347 17.6804 19.8798 18.0084C19.2387 21.842 15.943 24.5668 12.1226 24.5668C8.30118 24.5668 5.00616 21.8408 4.36526 18.0084V18.0084ZM12.1226 25.8851C13.0703 25.8851 14.0651 25.7331 14.9956 25.4254V26.0766L13.7162 26.9296L12.1225 27.992L9.24943 26.0766V25.4254C10.1686 25.7293 11.1625 25.8851 12.1226 25.8851ZM22.9528 37.7816H14.8392L13.9521 33.2659L14.3157 31.8409C14.4954 31.872 14.6812 31.8249 14.8221 31.7199L18.8593 28.7108H19.7854C21.532 28.7108 22.9529 30.1317 22.9529 31.8782V37.7816H22.9528Z" fill="#4EAAC8"/>
<path d="M33.5417 21.5771V23.4341H33.477C32.9219 23.4341 32.4702 23.886 32.4702 24.4414C32.4702 24.6395 32.5288 24.832 32.6399 24.9985L34.5942 27.93C34.7812 28.2105 35.0942 28.3782 35.4313 28.3782C35.7687 28.3782 36.0817 28.2105 36.2685 27.93C38.4035 24.7274 38.3925 24.8455 38.3925 24.4413C38.3925 23.886 37.9407 23.4341 37.3856 23.4341H37.1219C36.7578 23.4341 36.4627 23.7292 36.4627 24.0933C36.4627 24.3579 36.6186 24.5859 36.8434 24.691L35.4313 26.8091L34.0603 24.7525H34.2009C34.565 24.7525 34.8601 24.4574 34.8601 24.0933V20.9179C34.8601 20.5538 34.565 20.2587 34.2009 20.2587H26.2793C25.9643 20.2587 25.708 20.0024 25.708 19.6874C25.708 19.3724 25.9643 19.1162 26.2793 19.1162H35.4313C35.7463 19.1162 36.0026 19.3724 36.0026 19.6874V21.4772C36.0026 21.8414 36.2977 22.1364 36.6618 22.1364C37.0259 22.1364 37.321 21.8414 37.321 21.4772V19.6874C37.321 18.6455 36.4733 17.7978 35.4313 17.7978H26.2793C25.2374 17.7978 24.3896 18.6455 24.3896 19.6874C24.3896 20.7294 25.2374 21.5771 26.2793 21.5771H33.5417Z" fill="#4EAAC8"/>
</svg>
