<svg width="28" height="28" viewBox="0 0 28 28" fill="none" xmlns="http://www.w3.org/2000/svg">
<path d="M25.2073 14.6831C25.4547 14.3163 25.5993 13.8746 25.5993 13.3998V12.9612C25.5993 11.6922 24.5669 10.6599 23.298 10.6599C22.6649 10.6599 22.0907 10.9169 21.6742 11.3321C20.5965 8.12706 17.5636 5.81192 14 5.81192C10.4364 5.81192 7.40348 8.12701 6.32581 11.3321C5.90931 10.9169 5.33515 10.6599 4.70198 10.6599C3.43306 10.6599 2.40067 11.6922 2.40067 12.9612V13.3998C2.40067 13.8746 2.54527 14.3163 2.79267 14.6831C1.19968 15.0188 0 16.4349 0 18.1263V19.2274C0 19.5293 0.244891 19.7742 0.546875 19.7742H3.39062C3.69261 19.7742 3.9375 19.5293 3.9375 19.2274C3.9375 18.9254 3.69261 18.6805 3.39062 18.6805H1.09375V18.1263C1.09375 16.789 2.1817 15.7011 3.51898 15.7011H6.10728C6.31717 16.6242 6.68505 17.4881 7.1814 18.2621L0.941609 24.5019C0.142625 25.301 0.142625 26.6012 0.941664 27.4002C1.34121 27.7998 1.86594 27.9995 2.39077 27.9995C2.91561 27.9995 3.44045 27.7997 3.83999 27.4002L7.28 23.9602C7.49355 23.7466 7.49355 23.4003 7.28 23.1867C7.06639 22.9732 6.72022 22.9732 6.50655 23.1867L3.0666 26.6268C2.69391 26.9994 2.08764 26.9994 1.715 26.6269C1.34241 26.2542 1.34241 25.6479 1.715 25.2753L7.84038 19.1499C9.32608 20.8924 11.5361 21.9994 14 21.9994C17.8461 21.9994 21.0738 19.3028 21.8927 15.7011H24.481C25.8183 15.7011 26.9062 16.789 26.9062 18.1263V18.6805H21.7656C21.4636 18.6805 21.2188 18.9254 21.2188 19.2274C21.2188 19.5293 21.4636 19.7742 21.7656 19.7742H27.4531C27.7551 19.7742 28 19.5293 28 19.2274V18.1263C28 16.4349 26.8003 15.0188 25.2073 14.6831ZM5.90953 13.3999C5.90953 14.0657 5.36785 14.6074 4.70198 14.6074C4.0361 14.6074 3.49442 14.0657 3.49442 13.3999V12.9612C3.49442 12.2953 4.0361 11.7537 4.70198 11.7537C5.36785 11.7537 5.90953 12.2953 5.90953 12.9612V13.3999ZM14 20.9057C10.1402 20.9057 7 17.7655 7 13.9057C7 10.0459 10.1402 6.90567 14 6.90567C17.8598 6.90567 21 10.0459 21 13.9057C21 17.7655 17.8598 20.9057 14 20.9057ZM24.5055 13.3999C24.5055 14.0657 23.9638 14.6074 23.298 14.6074C22.6321 14.6074 22.0904 14.0657 22.0904 13.3999V12.9612C22.0904 12.2953 22.6321 11.7537 23.298 11.7537C23.9638 11.7537 24.5055 12.2953 24.5055 12.9612V13.3999Z" fill="#AF2323"/>
<path d="M14 7.99942C10.7433 7.99942 8.09375 10.6489 8.09375 13.9057C8.09375 15.5961 8.80775 17.1227 9.94973 18.2003C9.96926 18.2214 9.9902 18.2413 10.0132 18.2593C11.0646 19.223 12.4648 19.8119 14 19.8119C15.5352 19.8119 16.9354 19.2229 17.9868 18.2593C18.0098 18.2414 18.0307 18.2214 18.0503 18.2003C19.1923 17.1227 19.9062 15.5961 19.9062 13.9057C19.9062 10.649 17.2568 7.99942 14 7.99942ZM14 18.7182C12.8755 18.7182 11.8399 18.3304 11.0197 17.6816C11.6008 16.5822 12.7331 15.8904 14 15.8904C15.2669 15.8904 16.3993 16.5822 16.9803 17.6816C16.1601 18.3304 15.1245 18.7182 14 18.7182ZM12.8476 13.6443V13.2194C12.8476 12.5839 13.3645 12.067 14 12.067C14.6355 12.067 15.1524 12.5839 15.1524 13.2194V13.6443C15.1524 14.2797 14.6355 14.7967 14 14.7967C13.3645 14.7967 12.8476 14.2797 12.8476 13.6443ZM17.7803 16.8806C17.2793 16.0813 16.546 15.4716 15.6877 15.1241C16.0349 14.7285 16.2462 14.2108 16.2462 13.6443V13.2195C16.2462 11.9809 15.2385 10.9733 14 10.9733C12.7615 10.9733 11.7538 11.9809 11.7538 13.2195V13.6443C11.7538 14.2108 11.965 14.7285 12.3123 15.1241C11.454 15.4717 10.7208 16.0813 10.2197 16.8806C9.57354 16.0613 9.1875 15.0277 9.1875 13.9057C9.1875 11.2521 11.3464 9.09317 14 9.09317C16.6536 9.09317 18.8125 11.2521 18.8125 13.9057C18.8125 15.0277 18.4265 16.0613 17.7803 16.8806Z" fill="#AF2323"/>
<path d="M8.74289 21.724C8.64117 21.6223 8.50008 21.5638 8.35625 21.5638C8.21242 21.5638 8.07132 21.6223 7.96961 21.724C7.86794 21.8257 7.80937 21.9668 7.80937 22.1107C7.80937 22.2545 7.86789 22.3956 7.96961 22.4973C8.07132 22.599 8.21242 22.6575 8.35625 22.6575C8.50008 22.6575 8.64117 22.599 8.74289 22.4973C8.84455 22.3956 8.90312 22.2545 8.90312 22.1107C8.90312 21.9668 8.84461 21.8257 8.74289 21.724Z" fill="#AF2323"/>
<path d="M14.0111 0.000549316C13.7091 0.000549316 13.4642 0.24544 13.4642 0.547424V2.40811C13.4642 2.71015 13.7091 2.95499 14.0111 2.95499C14.3131 2.95499 14.558 2.7101 14.558 2.40811V0.547424C14.558 0.24544 14.3131 0.000549316 14.0111 0.000549316Z" fill="#AF2323"/>
<path d="M14.3975 3.82479C14.2959 3.72307 14.1553 3.66455 14.0109 3.66455C13.8671 3.66455 13.726 3.72301 13.6243 3.82479C13.5226 3.92656 13.4641 4.0676 13.4641 4.21143C13.4641 4.35526 13.5225 4.49635 13.6243 4.59801C13.726 4.69973 13.8671 4.7583 14.0109 4.7583C14.1553 4.7583 14.2959 4.69979 14.3975 4.59801C14.4992 4.49635 14.5578 4.35526 14.5578 4.21143C14.5578 4.0676 14.4993 3.9265 14.3975 3.82479Z" fill="#AF2323"/>
<path d="M18.6473 2.14566C18.4337 1.93216 18.0875 1.93216 17.8738 2.14566L16.9127 3.10685C16.6991 3.3204 16.6991 3.66668 16.9127 3.88029C17.0195 3.98704 17.1594 4.04047 17.2994 4.04047C17.4394 4.04047 17.5793 3.98704 17.6861 3.88029L18.6473 2.9191C18.8608 2.70555 18.8608 2.35927 18.6473 2.14566Z" fill="#AF2323"/>
<path d="M11.0965 3.11346L10.1261 2.14304C9.91249 1.92954 9.56632 1.92954 9.35266 2.14304C9.1391 2.35659 9.1391 2.70287 9.35266 2.91648L10.3231 3.88691C10.4299 3.99366 10.5699 4.04709 10.7098 4.04709C10.8498 4.04709 10.9897 3.99366 11.0965 3.88691C11.3101 3.67335 11.3101 3.32707 11.0965 3.11346Z" fill="#AF2323"/>
</svg>
