<svg width="28" height="28" viewBox="0 0 28 28" fill="none" xmlns="http://www.w3.org/2000/svg">
<g clip-path="url(#clip0_31_252)">
<path d="M27.5336 1.22177e-08C27.5335 1.22177e-08 27.5334 1.22177e-08 27.5333 1.22177e-08H0.466667C0.209008 -5.83211e-05 5.83333e-05 0.208775 0 0.466433C0 0.466492 0 0.466608 0 0.466667V9.8H0.933333V0.933333H27.0667V11.2H10.7333V12.1333H27.5333C27.791 12.1334 27.9999 11.9246 28 11.6669C28 11.6668 28 11.6667 28 11.6667V0.466667C28.0001 0.209008 27.7912 5.83456e-05 27.5336 1.22177e-08Z" fill="#AF2323"/>
<path d="M24.7333 2.33334H15.4V3.26668H24.7333V2.33334Z" fill="#AF2323"/>
<path d="M26.1333 5.13333H16.8V6.06666H26.1333V5.13333Z" fill="#AF2323"/>
<path d="M24.2667 7.93332H14.9333V8.86665H24.2667V7.93332Z" fill="#AF2323"/>
<path d="M14.8961 4.02349C14.5766 3.25553 13.6951 2.89199 12.9272 3.21149C12.9141 3.21697 12.901 3.22257 12.8881 3.2284L9.10408 5.19132C9.2533 4.88204 9.33164 4.54335 9.33333 4.2C9.33333 2.91136 8.28864 1.86667 7 1.86667C5.71136 1.86667 4.66667 2.91136 4.66667 4.2C4.66842 4.70651 4.83659 5.19844 5.14529 5.6H5.12587C3.80123 5.60887 2.61876 6.43236 2.1511 7.67177L0.905333 11.9656C0.608767 12.736 0.992833 13.6009 1.76324 13.8975C2.11452 14.0327 2.5039 14.0305 2.85361 13.8911C3.25541 13.7292 3.56807 13.4023 3.71198 12.9938L4.2 11.4406V18.1946C3.79843 17.886 3.30651 17.7178 2.8 17.716C1.51328 17.7141 0.468592 18.7556 0.466667 20.0424C0.465733 20.6726 0.720067 21.2762 1.17174 21.7157C0.454942 22.0819 0.00280001 22.8178 1.22177e-08 23.6227V27.5333C-5.83211e-05 27.791 0.208775 27.9999 0.466433 28C0.466492 28 0.466608 28 0.466667 28H5.13333C5.39099 28.0001 5.59994 27.7912 5.6 27.5336C5.6 27.5335 5.6 27.5334 5.6 27.5333V23.6227C5.59772 22.9613 5.29042 22.3379 4.76723 21.9333H8.29949C7.77624 22.3379 7.46894 22.9613 7.46673 23.6227V27.5333C7.46667 27.791 7.6755 27.9999 7.93316 28C7.93322 28 7.93333 28 7.93339 28H12.6001C12.8577 28.0001 13.0667 27.7912 13.0667 27.5336C13.0667 27.5335 13.0667 27.5334 13.0667 27.5333V23.6227C13.0639 22.8178 12.6118 22.0819 11.895 21.7157C12.8164 20.8164 12.8343 19.3404 11.9349 18.419C11.3811 17.8516 10.5769 17.6045 9.80006 17.7632V8.21678L14.0841 5.99235C14.852 5.67292 15.2156 4.79139 14.8961 4.02349ZM7 2.8C7.77321 2.8 8.4 3.42679 8.4 4.2C8.4 4.97321 7.77321 5.6 7 5.6C6.22714 5.59919 5.60082 4.97286 5.6 4.2C5.6 3.42679 6.22679 2.8 7 2.8ZM2.8 18.6493C3.57321 18.6493 4.2 19.2761 4.2 20.0493C4.2 20.8226 3.57321 21.4493 2.8 21.4493C2.02679 21.4493 1.4 20.8226 1.4 20.0493C1.40082 19.2765 2.02714 18.6502 2.8 18.6493ZM4.66667 27.0667H0.933333V23.6227C0.934267 22.9478 1.48126 22.4008 2.15629 22.4H3.44371C4.11868 22.4008 4.66573 22.9478 4.66667 23.6227V27.0667ZM12.1333 23.6227V27.0667H8.4V23.6227C8.40093 22.9478 8.94792 22.4008 9.62296 22.4H10.9104C11.5854 22.4008 12.1324 22.9478 12.1333 23.6227ZM10.2667 18.6493C11.0395 18.6502 11.6658 19.2765 11.6667 20.0493C11.6667 20.8226 11.0399 21.4493 10.2667 21.4493C9.49346 21.4493 8.86667 20.8226 8.86667 20.0493C8.86667 19.2761 9.49346 18.6493 10.2667 18.6493ZM14.0422 4.802C13.9797 4.9623 13.8514 5.08813 13.6899 5.14745L9.11849 7.51905C8.96379 7.59932 8.86667 7.75909 8.86667 7.93334V18.1946C7.99254 18.841 7.68973 20.0107 8.14053 21H7.46667V13.0667H6.53333V21H4.92613C5.0589 20.7066 5.12884 20.3887 5.13158 20.0667H5.13333V8.4C5.13328 8.14223 4.92427 7.93334 4.66655 7.93339C4.46279 7.93345 4.2826 8.06569 4.22147 8.26012L2.828 12.6943C2.72242 12.9855 2.40071 13.136 2.10951 13.0304C2.08909 13.023 2.06908 13.0144 2.0496 13.0047C1.78039 12.8655 1.66612 12.5407 1.78897 12.2637L3.03467 7.96979C3.37062 7.10704 4.19994 6.53736 5.12581 6.53334H8.4301C8.50488 6.53345 8.57862 6.51543 8.645 6.48095L13.2832 4.07336C13.5615 3.95728 13.8822 4.07604 14.0176 4.34543C14.0894 4.48741 14.0984 4.65308 14.0422 4.802Z" fill="#AF2323"/>
<path d="M19.3616 21.7157C20.2846 20.8164 20.3038 19.3391 19.4046 18.4161C18.5053 17.4931 17.028 17.4738 16.105 18.3731C15.182 19.2724 15.1628 20.7497 16.062 21.6727C16.0762 21.6872 16.0905 21.7016 16.1051 21.7157C15.3883 22.0819 14.9361 22.8178 14.9333 23.6227V27.5333C14.9333 27.791 15.1421 27.9999 15.3998 28C15.3998 28 15.3999 28 15.4 28H20.0667C20.3243 28 20.5333 27.7912 20.5333 27.5336C20.5333 27.5335 20.5333 27.5334 20.5333 27.5333V23.6227C20.5305 22.8178 20.0784 22.0819 19.3616 21.7157ZM17.7333 18.6493C18.5065 18.6493 19.1333 19.2761 19.1333 20.0493C19.1333 20.8225 18.5065 21.4493 17.7333 21.4493C16.9601 21.4493 16.3333 20.8225 16.3333 20.0493C16.3341 19.2765 16.9605 18.6502 17.7333 18.6493ZM19.6 27.0667H15.8667V23.6227C15.8676 22.9477 16.4146 22.4008 17.0896 22.4H18.377C19.052 22.4008 19.5991 22.9477 19.6 23.6227V27.0667Z" fill="#AF2323"/>
<path d="M26.8283 21.7157C27.7513 20.8164 27.7705 19.3391 26.8713 18.4161C25.972 17.4931 24.4947 17.4738 23.5717 18.3731C22.6487 19.2724 22.6294 20.7497 23.5287 21.6727C23.5429 21.6872 23.5572 21.7016 23.5718 21.7157C22.855 22.0819 22.4028 22.8178 22.4 23.6227V27.5333C22.4 27.791 22.6088 27.9999 22.8664 28C22.8665 28 22.8666 28 22.8667 28H27.5333C27.791 28 28 27.7912 28 27.5336C28 27.5335 28 27.5334 28 27.5333V23.6227C27.9972 22.8178 27.5451 22.0819 26.8283 21.7157ZM25.2 18.6493C25.9732 18.6493 26.6 19.2761 26.6 20.0493C26.6 20.8225 25.9732 21.4493 25.2 21.4493C24.4268 21.4493 23.8 20.8225 23.8 20.0493C23.8008 19.2765 24.4272 18.6502 25.2 18.6493ZM27.0667 27.0667H23.3333V23.6227C23.3343 22.9477 23.8813 22.4008 24.5563 22.4H25.8437C26.5187 22.4008 27.0657 22.9477 27.0667 23.6227V27.0667Z" fill="#AF2323"/>
</g>
<defs>
<clipPath id="clip0_31_252">
<rect width="28" height="28" fill="white"/>
</clipPath>
</defs>
</svg>
