<svg width="28" height="28" viewBox="0 0 28 28" fill="none" xmlns="http://www.w3.org/2000/svg">
<g clip-path="url(#clip0_32_354)">
<path d="M27.3384 13.1013C26.9193 12.7146 26.3492 12.4758 25.7741 12.4459C25.121 12.4122 24.5092 12.645 24.0536 13.1009L20.9402 16.1815C20.8787 16.0749 20.8084 15.9743 20.7296 15.881C20.3466 15.4262 19.7864 15.1758 19.1526 15.1758H14.7943C13.9725 15.1758 13.1708 15.0692 12.4115 14.8592C10.4321 14.3117 8.54111 14.7116 6.94257 16.0164C6.29251 16.547 5.81827 17.1243 5.51834 17.5451L4.73691 16.7867C4.63416 16.687 4.49488 16.6304 4.35153 16.6304C4.35025 16.6304 4.34918 16.6304 4.3479 16.6304C4.19944 16.6314 4.05588 16.6932 3.95291 16.8L0.154055 20.7437C0.0523703 20.8492 -0.00295809 20.991 0.000246257 21.1376C0.0034506 21.2843 0.0647604 21.4236 0.170931 21.5247L6.59607 27.6426C6.70267 27.7441 6.83939 27.7947 6.97589 27.7947C7.11924 27.7947 7.26258 27.739 7.37046 27.6283L11.1339 23.7673C11.2366 23.6618 11.2936 23.5176 11.2909 23.3702C11.2881 23.2249 11.2272 23.0848 11.123 22.9835L10.7953 22.6656L11.5453 22.5813C11.999 22.5285 12.4605 22.5018 12.9172 22.5018H19.5483C20.6258 22.5018 21.5409 22.2662 22.2685 21.8013C22.2745 21.7975 22.2805 21.7934 22.2865 21.7894C22.5471 21.6082 22.7836 21.3935 22.9891 21.1515L27.4576 15.8944C28.2224 14.9949 28.1746 13.8723 27.3384 13.1013ZM6.96158 26.4696L1.33176 21.109L4.36457 17.9604L9.96149 23.3917L6.96158 26.4696ZM26.6183 15.1809L22.1498 20.4382C22.0079 20.605 21.8453 20.7533 21.6661 20.8789C21.1199 21.2247 20.4074 21.4003 19.5483 21.4003H12.917C12.4182 21.4003 11.9138 21.4296 11.4201 21.4871L9.77137 21.6721L6.31922 18.322C6.55912 17.9664 7.00025 17.3915 7.63919 16.8698C8.9675 15.7855 10.4744 15.4661 12.1178 15.9209C12.9727 16.1574 13.8731 16.2774 14.7943 16.2774H19.1526C19.9353 16.2774 20.1443 16.9555 20.1443 17.356C20.1443 17.6487 20.0503 17.9273 19.8864 18.1204C19.7087 18.3295 19.456 18.4355 19.1353 18.4355H15.3414C15.0372 18.4355 14.7907 18.6822 14.7907 18.9864C14.7907 19.2906 15.0372 19.5371 15.3414 19.5371H19.1353C19.7758 19.5371 20.3406 19.2872 20.726 18.8334C21.0466 18.4562 21.2295 17.9602 21.2448 17.4299L24.8305 13.8819C25.343 13.3694 26.1437 13.498 26.5916 13.9111C26.8232 14.1248 27.1347 14.5736 26.6183 15.1809Z" fill="#AF2323"/>
<path d="M13.6236 18.8396C13.5542 18.5433 13.2579 18.3598 12.9616 18.4291C12.6655 18.4985 12.4816 18.7948 12.5512 19.0911L12.5563 19.1135C12.6159 19.3673 12.8422 19.5386 13.0921 19.5386C13.1338 19.5386 13.1761 19.5339 13.2184 19.5241C13.5147 19.4547 13.6984 19.1582 13.6289 18.8621L13.6236 18.8396Z" fill="#AF2323"/>
<path d="M3.72302 11.8398H9.09009C9.38233 11.8398 9.65277 11.745 9.87281 11.5848C10.0928 11.745 10.3633 11.8398 10.6555 11.8398H16.0228C16.315 11.8398 16.5855 11.745 16.8055 11.5848C17.0255 11.745 17.296 11.8398 17.5882 11.8398H22.9553C23.6906 11.8398 24.2887 11.2415 24.2887 10.5062V8.00339C24.2887 6.87931 23.6596 5.90283 22.718 5.42111C23.1743 4.87082 23.449 4.16501 23.449 3.39597C23.449 1.64404 22.0237 0.21875 20.2718 0.21875C18.5198 0.21875 17.0945 1.64404 17.0945 3.39597C17.0945 4.16501 17.3693 4.87104 17.8256 5.42111C17.4186 5.62961 17.0702 5.93061 16.8055 6.29569C16.5408 5.93039 16.1924 5.6294 15.7853 5.42111C16.2416 4.87104 16.5163 4.16501 16.5163 3.39597C16.5163 1.64404 15.091 0.21875 13.3391 0.21875C11.5871 0.21875 10.1618 1.64404 10.1618 3.39597C10.1618 4.16501 10.4368 4.87104 10.8931 5.42133C10.4859 5.62961 10.1375 5.93061 9.87281 6.2959C9.60813 5.93061 9.25971 5.62961 8.85254 5.42111C9.30884 4.87104 9.58356 4.16501 9.58356 3.39618C9.58356 1.64404 8.15827 0.21875 6.40634 0.21875C4.65463 0.21875 3.22934 1.64404 3.22934 3.39618C3.22934 4.16501 3.50406 4.87104 3.96036 5.42133C3.01871 5.90305 2.38937 6.87973 2.38937 8.0036V10.5062C2.38937 11.2415 2.98773 11.8398 3.72302 11.8398ZM20.272 1.3204C21.4164 1.3204 22.3475 2.25137 22.3475 3.39597C22.3475 4.54035 21.4164 5.47153 20.272 5.47153C19.1274 5.47153 18.1964 4.54056 18.1964 3.39597C18.1962 2.25137 19.1274 1.3204 20.272 1.3204ZM18.8409 6.23139C19.2714 6.4495 19.7574 6.57318 20.2718 6.57318C20.7864 6.57318 21.2724 6.4495 21.7026 6.23139C22.5586 6.3805 23.1873 7.11814 23.1873 8.00339V10.5062C23.1873 10.6342 23.0833 10.7382 22.9553 10.7382H17.5882C17.4605 10.7382 17.3565 10.6342 17.3565 10.5062V8.00339C17.3562 7.11835 17.9851 6.3805 18.8409 6.23139ZM13.3393 1.3204C14.4836 1.3204 15.4148 2.25137 15.4148 3.39597C15.4148 4.54035 14.4836 5.47153 13.3393 5.47153C12.1947 5.47153 11.2637 4.54056 11.2637 3.39597C11.2637 2.25137 12.1947 1.3204 13.3393 1.3204ZM11.9084 6.23139C12.3387 6.4495 12.8246 6.57318 13.3393 6.57318C13.8539 6.57318 14.3397 6.4495 14.7701 6.23139C15.6259 6.3805 16.2548 7.11814 16.2548 8.00339V10.5062C16.2548 10.6342 16.1508 10.7382 16.0228 10.7382H10.6557C10.5278 10.7382 10.4237 10.6342 10.4237 10.5062V8.00339C10.4237 7.11835 11.0526 6.3805 11.9084 6.23139ZM6.40656 1.3204C7.55094 1.3204 8.48212 2.25137 8.48212 3.39597C8.48212 4.54035 7.55094 5.47153 6.40656 5.47153C5.26218 5.47153 4.33099 4.54035 4.33099 3.39597C4.33099 2.25137 5.26218 1.3204 6.40656 1.3204ZM3.49103 8.00339C3.49103 7.11835 4.11993 6.3805 4.97571 6.23139C5.40616 6.4495 5.89194 6.57318 6.40656 6.57318C6.92117 6.57318 7.40695 6.4495 7.8374 6.23139C8.69339 6.3805 9.32208 7.11814 9.32208 8.00339V10.5062C9.32208 10.6342 9.21805 10.7382 9.09009 10.7382H3.72302C3.59506 10.7382 3.49103 10.6342 3.49103 10.5062V8.00339Z" fill="#AF2323"/>
</g>
<defs>
<clipPath id="clip0_32_354">
<rect width="28" height="28" fill="white"/>
</clipPath>
</defs>
</svg>
