<svg width="28" height="28" viewBox="0 0 28 28" fill="none" xmlns="http://www.w3.org/2000/svg">
<path d="M25.2584 22.3263C27.0381 19.9305 28 17.0392 28 14C28 10.2605 26.5438 6.74477 23.8995 4.10047C21.2552 1.45627 17.7395 0 14 0V1.64062C17.3013 1.64062 20.4051 2.92622 22.7394 5.26061C25.0738 7.595 26.3594 10.6987 26.3594 14C26.3594 16.6667 25.5201 19.2042 23.9672 21.3117L23.7792 19.162L22.1448 19.305L22.5737 24.2081L27.4769 23.7791L27.334 22.1447L25.2584 22.3263Z" fill="#4EAAC8"/>
<path d="M1.64062 14C1.64062 11.3333 2.47991 8.79578 4.03277 6.68829L4.22084 8.838L5.85523 8.69505L5.42626 3.79193L0.523086 4.22085L0.666039 5.85523L2.74159 5.67367C0.961898 8.06948 0 10.9608 0 14C0 17.7395 1.45622 21.2552 4.10047 23.8995C6.74477 26.5437 10.2605 28 14 28V26.3594C10.6987 26.3594 7.59495 25.0738 5.26061 22.7394C2.92622 20.405 1.64062 17.3013 1.64062 14V14Z" fill="#4EAAC8"/>
<path d="M14 10.6641C12.1605 10.6641 10.6641 12.1605 10.6641 14C10.6641 15.8395 12.1605 17.3359 14 17.3359C15.8395 17.3359 17.3359 15.8395 17.3359 14C17.3359 12.1605 15.8395 10.6641 14 10.6641ZM14 15.6953C13.0652 15.6953 12.3047 14.9348 12.3047 14C12.3047 13.0652 13.0652 12.3047 14 12.3047C14.9348 12.3047 15.6953 13.0652 15.6953 14C15.6953 14.9348 14.9348 15.6953 14 15.6953Z" fill="#4EAAC8"/>
<path d="M21.6001 10.6681L19.9905 11.1911C19.631 10.4276 19.1299 9.74351 18.5211 9.1729L19.5175 7.80145L18.1902 6.83709L17.1949 8.2069C16.4745 7.80795 15.6723 7.53944 14.8203 7.43362V5.74219H13.1797V7.43362C12.3277 7.53944 11.5255 7.80801 10.805 8.2069L9.80984 6.83709L8.48252 7.80145L9.47893 9.1729C8.87009 9.74351 8.36894 10.4275 8.00953 11.1911L6.39986 10.6681L5.89285 12.2283L7.50154 12.751C7.42394 13.1557 7.38281 13.5731 7.38281 14C7.38281 14.4269 7.42394 14.8443 7.50154 15.249L5.89285 15.7717L6.39986 17.3319L8.00953 16.8089C8.36899 17.5724 8.87009 18.2565 9.47893 18.8271L8.48252 20.1986L9.80984 21.1629L10.805 19.7931C11.5255 20.192 12.3277 20.4606 13.1797 20.5664V22.2578H14.8203V20.5664C15.6723 20.4606 16.4745 20.192 17.1949 19.7931L18.1902 21.1629L19.5175 20.1986L18.5211 18.8271C19.1299 18.2565 19.6311 17.5725 19.9905 16.8089L21.6001 17.3319L22.1071 15.7717L20.4985 15.249C20.5761 14.8443 20.6172 14.4269 20.6172 14C20.6172 13.5731 20.5761 13.1557 20.4985 12.751L22.1071 12.2283L21.6001 10.6681ZM14 18.9766C11.2559 18.9766 9.02343 16.7441 9.02343 14C9.02343 11.2559 11.2559 9.02344 14 9.02344C16.7441 9.02344 18.9766 11.2559 18.9766 14C18.9766 16.7441 16.7441 18.9766 14 18.9766Z" fill="#4EAAC8"/>
</svg>
