<svg width="28" height="28" viewBox="0 0 28 28" fill="none" xmlns="http://www.w3.org/2000/svg">
<path d="M24.3924 22.6074C24.9904 22.1257 25.375 21.3885 25.375 20.5625C25.375 19.1148 24.1977 17.9375 22.75 17.9375C21.3023 17.9375 20.125 19.1148 20.125 20.5625C20.125 21.3885 20.5096 22.1257 21.1076 22.6074C20.174 22.9478 19.3747 23.5668 18.8125 24.367V24.0625C18.8125 21.9861 17.4882 20.2182 15.6424 19.5449C16.0444 19.2216 16.3503 18.7832 16.5069 18.2792C16.6849 18.3387 16.8713 18.375 17.0625 18.375C18.0276 18.375 18.8125 17.5901 18.8125 16.625V15.5995L20.1661 16.9531C20.4422 17.2296 20.7703 17.409 21.1142 17.4707C21.224 17.4904 21.3334 17.5004 21.4419 17.5004C21.9043 17.5004 22.3414 17.3215 22.6752 16.9877C23.0051 16.6569 23.1875 16.2177 23.1875 15.75C23.1875 15.2823 23.0051 14.8431 22.7006 14.5408L19.3935 10.5967C18.9118 10.0223 18.3474 9.52481 17.7161 9.11881L13.3494 6.31138C12.7282 5.91194 12.012 5.65775 11.2788 5.57681L9.26538 5.35325L9.80613 4.8125L6.125 1.13138L0.256378 7L3.9375 10.6811L4.25513 10.3635L4.73682 11.3264C5.12925 12.1113 5.64288 12.8236 6.26325 13.4439C6.56294 13.7436 6.88888 14.0223 7.23188 14.2721L11.1571 17.1268C11.2311 17.1806 11.3089 17.2266 11.3881 17.269C11.3816 17.3456 11.375 17.4226 11.375 17.5C11.375 18.326 11.7596 19.0632 12.3576 19.5449C10.5118 20.2182 9.1875 21.9861 9.1875 24.0625V24.3666C8.62532 23.5664 7.826 22.9478 6.89238 22.6069C7.49044 22.1257 7.875 21.3885 7.875 20.5625C7.875 19.1148 6.69769 17.9375 5.25 17.9375C3.80232 17.9375 2.625 19.1148 2.625 20.5625C2.625 21.3885 3.00957 22.1257 3.60763 22.6074C1.76182 23.2807 0.437503 25.0486 0.437503 27.125V27.5625H10.0625V27.125C10.0625 26.1564 9.77244 25.2556 9.2785 24.5H18.7219C18.2276 25.2556 17.9375 26.1564 17.9375 27.125V27.5625H27.5625V27.125C27.5625 25.0486 26.2382 23.2807 24.3924 22.6074V22.6074ZM3.5 20.5625C3.5 19.5974 4.28488 18.8125 5.25 18.8125C6.21513 18.8125 7 19.5974 7 20.5625C7 21.5276 6.21513 22.3125 5.25 22.3125C4.28488 22.3125 3.5 21.5276 3.5 20.5625ZM6.46844 23.3844L5.25 24.7244L4.03157 23.3844C4.41613 23.2588 4.82432 23.1875 5.25 23.1875C5.67569 23.1875 6.08388 23.2588 6.46844 23.3844ZM1.33657 26.6875C1.47394 25.452 2.18532 24.388 3.19682 23.7672L5.25 26.0256L7.30275 23.7672C8.31425 24.388 9.02607 25.452 9.163 26.6875H1.33657ZM14.3141 14.8956C14.2065 14.5941 14.0341 14.3172 13.7918 14.0989L10.5888 11.2162L13.9685 12.138C14.1579 12.1896 14.3369 12.271 14.5005 12.3799C15.0089 12.7194 15.3125 13.2869 15.3125 13.8981V15.2303C15.0119 15.0557 14.6746 14.9389 14.3141 14.8956ZM22.0561 15.1314C22.2215 15.2968 22.3125 15.5164 22.3125 15.75C22.3125 15.9836 22.2215 16.2033 22.0561 16.3686C21.8501 16.5751 21.5644 16.6618 21.2695 16.6097C21.0582 16.5716 20.8893 16.4391 20.7852 16.3345L18.8125 14.3623V11.2652L22.0561 15.1314ZM1.49363 7L6.125 2.36863L8.56888 4.8125L3.9375 9.44388L1.49363 7ZM7.74682 13.5647C7.44057 13.3416 7.14919 13.0931 6.88188 12.8258C6.328 12.2719 5.86994 11.6362 5.5195 10.9353L4.90744 9.71163L8.4735 6.14557L11.1825 6.447C11.7828 6.5135 12.3686 6.72131 12.8769 7.04813L17.2436 9.85556C17.4873 10.0122 17.7179 10.1872 17.9379 10.374V16.625C17.9379 17.1076 17.5455 17.5 17.0629 17.5C16.905 17.5 16.7528 17.4567 16.6193 17.3779C16.5966 16.8897 16.4426 16.4356 16.1879 16.0519V13.8976C16.1879 12.9933 15.7386 12.1538 14.9861 11.6519C14.7438 11.4905 14.4791 11.3698 14.1991 11.2936L9.74094 10.0778C9.60925 10.0424 9.46882 10.0695 9.36032 10.1522C9.25138 10.2353 9.1875 10.3635 9.1875 10.5V10.9375C9.1875 11.0618 9.24 11.1799 9.33232 11.2626L13.2064 14.749C13.4326 14.9529 13.5625 15.2443 13.5625 15.5492C13.5625 16.142 13.0795 16.625 12.4867 16.625H12.3047C12.0759 16.625 11.8571 16.5537 11.6721 16.4194L7.74682 13.5647ZM12.25 17.5C12.25 17.4987 12.2504 17.4974 12.2504 17.4956C12.2688 17.4961 12.2863 17.5 12.3047 17.5H12.4867C13.475 17.5 14.2853 16.7584 14.4121 15.8043C15.1778 15.9906 15.75 16.6775 15.75 17.5C15.75 18.4651 14.9651 19.25 14 19.25C13.0349 19.25 12.25 18.4651 12.25 17.5ZM15.2184 20.3219L14 21.6619L12.7816 20.3219C13.1661 20.1963 13.5743 20.125 14 20.125C14.4257 20.125 14.8339 20.1963 15.2184 20.3219ZM10.0866 23.625C10.2239 22.3895 10.9353 21.3255 11.9468 20.7047L14 22.9631L16.0528 20.7047C17.0643 21.3255 17.7761 22.3895 17.913 23.625H10.0866ZM21 20.5625C21 19.5974 21.7849 18.8125 22.75 18.8125C23.7151 18.8125 24.5 19.5974 24.5 20.5625C24.5 21.5276 23.7151 22.3125 22.75 22.3125C21.7849 22.3125 21 21.5276 21 20.5625ZM23.9684 23.3844L22.75 24.7244L21.5316 23.3844C21.9161 23.2588 22.3243 23.1875 22.75 23.1875C23.1757 23.1875 23.5839 23.2588 23.9684 23.3844ZM18.8366 26.6875C18.9739 25.452 19.6853 24.388 20.6968 23.7672L22.75 26.0256L24.8028 23.7672C25.8143 24.388 26.5261 25.452 26.663 26.6875H18.8366Z" fill="#4EAAC8"/>
<path d="M27.4343 1.18433L26.8157 0.565704L23.625 3.75639L23.0593 3.1907L22.4407 3.80933L23.625 4.99364L27.4343 1.18433Z" fill="#4EAAC8"/>
<path d="M23.625 8.75C24.3486 8.75 24.9375 8.16113 24.9375 7.4375C24.9375 6.71387 24.3486 6.125 23.625 6.125C22.9014 6.125 22.3125 6.71387 22.3125 7.4375C22.3125 8.16113 22.9014 8.75 23.625 8.75ZM23.625 7C23.8661 7 24.0625 7.19644 24.0625 7.4375C24.0625 7.67856 23.8661 7.875 23.625 7.875C23.3839 7.875 23.1875 7.67856 23.1875 7.4375C23.1875 7.19644 23.3839 7 23.625 7Z" fill="#4EAAC8"/>
<path d="M16.1875 3.5H21.4375V4.375H16.1875V3.5Z" fill="#4EAAC8"/>
<path d="M16.1875 7H19.6875V7.875H16.1875V7Z" fill="#4EAAC8"/>
<path d="M20.5625 7H21.4375V7.875H20.5625V7Z" fill="#4EAAC8"/>
<path d="M16.1875 5.25H21.4375V6.125H16.1875V5.25Z" fill="#4EAAC8"/>
</svg>
