<svg width="495" height="131" viewBox="0 0 495 131" fill="none" xmlns="http://www.w3.org/2000/svg">
<path d="M143.257 92.4977C143.187 92.8823 143.105 93.199 142.995 93.4328C142.884 93.6782 142.712 93.8539 142.47 93.9833C142.229 94.1109 141.899 94.1937 141.478 94.2287C141.065 94.2635 140.521 94.2751 139.846 94.2751C139.309 94.2751 138.847 94.2751 138.461 94.2635C138.076 94.2519 137.751 94.2171 137.483 94.1689C137.214 94.1224 136.994 94.0529 136.829 93.9717C136.657 93.8771 136.518 93.761 136.402 93.6202C136.292 93.4908 136.202 93.3151 136.139 93.1294C136.078 92.9305 136.022 92.6835 135.967 92.3917L128.203 53.065C128.044 52.2361 127.941 51.5912 127.914 51.1119C127.879 50.6329 127.941 50.2698 128.114 50.0244C128.279 49.7906 128.568 49.6382 128.968 49.5802C129.374 49.5222 129.939 49.499 130.669 49.499C131.289 49.499 131.772 49.5222 132.123 49.5685C132.475 49.615 132.743 49.6962 132.93 49.8022C133.115 49.92 133.253 50.0941 133.322 50.3163C133.397 50.5517 133.467 50.8319 133.535 51.1834L139.881 85.3971H139.901L146.143 51.3458C146.198 50.9595 146.267 50.6445 146.343 50.4107C146.425 50.1654 146.563 49.978 146.763 49.8372C146.956 49.7094 147.239 49.615 147.604 49.5685C147.962 49.5222 148.465 49.499 149.099 49.499C149.719 49.499 150.201 49.5337 150.545 49.6034C150.889 49.673 151.124 49.8372 151.255 50.094C151.379 50.3643 151.421 50.7373 151.372 51.2182C151.331 51.6972 151.22 52.3289 151.062 53.1364L143.257 92.4977ZM171.765 90.5199C171.765 91.1864 171.75 91.7368 171.716 92.1927C171.682 92.6371 171.633 93.0001 171.565 93.2687C171.495 93.5504 171.413 93.7494 171.31 93.8771C171.213 94.0065 171.096 94.0645 170.979 94.0645H157.876C157.435 94.0645 157.063 93.8423 156.76 93.398C156.456 92.9537 156.305 92.2275 156.305 91.2228V52.5511C156.305 51.5448 156.456 50.8203 156.76 50.3759C157.063 49.9316 157.435 49.7094 157.876 49.7094H170.917C171.035 49.7094 171.145 49.7674 171.241 49.8836C171.33 50.0012 171.413 50.2002 171.482 50.4805C171.544 50.7738 171.599 51.1353 171.633 51.5796C171.668 52.0371 171.682 52.5975 171.682 53.2888C171.682 53.9321 171.668 54.4693 171.633 54.9251C171.599 55.3694 171.551 55.7326 171.482 56.0011C171.413 56.2829 171.33 56.4819 171.241 56.6095C171.145 56.739 171.035 56.7969 170.917 56.7969H161.596V67.6047H169.45C169.574 67.6047 169.684 67.6643 169.781 67.792C169.883 67.9214 169.966 68.1086 170.036 68.3772C170.104 68.6342 170.153 68.9857 170.187 69.4416C170.221 69.886 170.235 70.4247 170.235 71.0564C170.235 71.7228 170.221 72.2733 170.187 72.7059C170.153 73.1386 170.104 73.4884 170.036 73.7471C169.966 74.0157 169.883 74.2031 169.781 74.3075C169.684 74.4251 169.574 74.4832 169.45 74.4832H161.596V86.9754H170.979C171.103 86.9754 171.213 87.0351 171.31 87.1627C171.413 87.2919 171.495 87.4909 171.565 87.7712C171.633 88.0397 171.682 88.4028 171.716 88.8471C171.75 89.3031 171.765 89.8534 171.765 90.5199ZM195.443 53.4048C195.443 54.0713 195.429 54.6334 195.394 55.1125C195.36 55.58 195.312 55.9547 195.243 56.2365C195.174 56.5283 195.091 56.739 194.988 56.8682C194.891 57.0074 194.774 57.0788 194.658 57.0788H188.126V92.8359C188.126 93.0581 188.085 93.2687 187.995 93.456C187.906 93.6318 187.761 93.7843 187.561 93.9004C187.362 94.0065 187.086 94.0993 186.742 94.1689C186.397 94.2403 185.97 94.2751 185.46 94.2751C184.95 94.2751 184.523 94.2403 184.179 94.1689C183.834 94.0993 183.558 94.0065 183.358 93.9004C183.159 93.7843 183.015 93.6318 182.925 93.456C182.835 93.2687 182.794 93.0581 182.794 92.8359V57.0788H176.262C176.132 57.0788 176.014 57.0074 175.919 56.8682C175.829 56.739 175.746 56.5283 175.678 56.2365C175.615 55.9547 175.56 55.58 175.525 55.1125C175.491 54.6334 175.477 54.0713 175.477 53.4048C175.477 52.7268 175.491 52.1416 175.525 51.6624C175.56 51.1834 175.615 50.797 175.678 50.5152C175.746 50.2234 175.829 50.0244 175.919 49.8952C176.014 49.7674 176.132 49.7094 176.262 49.7094H194.658C194.774 49.7094 194.884 49.7674 194.988 49.8952C195.091 50.0244 195.174 50.2234 195.243 50.5152C195.312 50.797 195.36 51.1834 195.394 51.6624C195.429 52.1416 195.443 52.7268 195.443 53.4048ZM222.531 71.3714C222.531 75.0452 222.263 78.3311 221.726 81.2324C221.188 84.1338 220.389 86.6023 219.321 88.6133C218.26 90.6377 216.944 92.1811 215.381 93.2455C213.81 94.3098 211.998 94.837 209.938 94.837C207.905 94.837 206.135 94.3795 204.626 93.4792C203.111 92.579 201.85 91.2096 200.837 89.3511C199.831 87.5025 199.073 85.1517 198.57 82.2968C198.067 79.4436 197.813 76.0631 197.813 72.1555C197.813 68.5762 198.081 65.3483 198.618 62.4818C199.156 59.6169 199.955 57.1832 201.023 55.1705C202.084 53.1595 203.4 51.616 204.964 50.5517C206.534 49.474 208.353 48.9369 210.427 48.9369C212.405 48.9369 214.148 49.3812 215.663 50.2698C217.172 51.1585 218.439 52.5279 219.452 54.3879C220.472 56.2365 221.237 58.5642 221.753 61.3826C222.27 64.2126 222.531 67.535 222.531 71.3714ZM216.951 71.8272C216.951 69.4996 216.841 67.3825 216.628 65.4759C216.414 63.5693 216.049 61.933 215.532 60.5752C215.016 59.2191 214.326 58.1663 213.465 57.417C212.604 56.6808 211.529 56.3061 210.241 56.3061C208.939 56.3061 207.851 56.7274 206.982 57.5579C206.108 58.3885 205.398 59.5109 204.861 60.9035C204.323 62.2944 203.944 63.9208 203.724 65.781C203.503 67.6527 203.393 69.6174 203.393 71.6996C203.393 74.1201 203.503 76.2969 203.717 78.2267C203.93 80.1565 204.295 81.8061 204.805 83.1854C205.315 84.5548 205.997 85.596 206.858 86.3205C207.72 87.0351 208.802 87.3965 210.103 87.3965C211.405 87.3965 212.494 86.987 213.362 86.1563C214.237 85.3391 214.946 84.215 215.483 82.8008C216.021 81.385 216.4 79.7353 216.621 77.8521C216.841 75.9687 216.951 73.9577 216.951 71.8272ZM248.008 92.9073C248.008 93.1526 247.981 93.3632 247.925 93.5388C247.87 93.713 247.746 93.8539 247.546 93.9717C247.34 94.0761 247.05 94.1573 246.658 94.2053C246.265 94.2519 245.735 94.2751 245.066 94.2751C244.502 94.2751 244.053 94.2519 243.716 94.2053C243.379 94.1573 243.11 94.0761 242.917 93.9468C242.724 93.8191 242.586 93.6666 242.504 93.4676C242.428 93.2687 242.359 93.0349 242.304 92.7664L239.947 82.8357C239.665 81.7115 239.39 80.7069 239.121 79.8415C238.852 78.9628 238.549 78.2383 238.218 77.6531C237.888 77.0678 237.502 76.6351 237.068 76.3317C236.641 76.0382 236.138 75.8875 235.573 75.8875H233.913V92.8359C233.913 93.0581 233.871 93.2687 233.782 93.4444C233.692 93.6318 233.548 93.7843 233.348 93.9004C233.147 94.0065 232.879 94.0993 232.542 94.1689C232.211 94.2403 231.776 94.2751 231.26 94.2751C230.75 94.2751 230.324 94.2403 229.979 94.1689C229.634 94.0993 229.366 94.0065 229.165 93.9004C228.966 93.7843 228.822 93.6318 228.746 93.456C228.663 93.2687 228.622 93.0581 228.622 92.8359V52.5511C228.622 51.5448 228.773 50.8203 229.077 50.3759C229.379 49.9316 229.751 49.7094 230.193 49.7094H236.957C237.64 49.7094 238.211 49.7327 238.653 49.779C239.093 49.8256 239.5 49.8836 239.865 49.9432C240.912 50.2002 241.856 50.6329 242.696 51.253C243.537 51.8614 244.254 52.6688 244.839 53.6618C245.424 54.6566 245.872 55.8271 246.182 57.1832C246.492 58.5393 246.644 60.0961 246.644 61.8617C246.644 63.3356 246.534 64.6934 246.314 65.9086C246.086 67.1371 245.762 68.2247 245.329 69.1845C244.901 70.1445 244.371 70.9735 243.737 71.6764C243.103 72.3893 242.38 72.9514 241.573 73.3956C241.966 73.7106 242.331 74.0969 242.676 74.5529C243.02 75.0104 243.344 75.5708 243.647 76.2256C243.95 76.8805 244.24 77.6183 244.508 78.4605C244.777 79.291 245.039 80.2377 245.293 81.2905L247.505 90.0524C247.705 90.9177 247.843 91.5494 247.904 91.959C247.974 92.3569 248.008 92.6719 248.008 92.9073ZM241.146 62.7869C241.146 61.3247 240.953 60.0845 240.561 59.0898C240.168 58.0835 239.527 57.3705 238.639 56.961C238.37 56.8433 238.067 56.7622 237.722 56.6924C237.378 56.6211 236.903 56.5864 236.296 56.5864H233.913V69.1498H236.62C237.378 69.1498 238.033 68.9973 238.597 68.6823C239.169 68.3772 239.638 67.9446 240.017 67.3825C240.396 66.8337 240.678 66.1556 240.864 65.3831C241.05 64.6106 241.146 63.7451 241.146 62.7869ZM280.91 87.3617C280.91 87.9352 280.904 88.426 280.883 88.8239C280.863 89.2217 280.828 89.5732 280.786 89.8534C280.752 90.1452 280.698 90.3923 280.628 90.6029C280.56 90.8017 280.456 91.0356 280.305 91.2925C280.159 91.5494 279.87 91.8893 279.451 92.2989C279.023 92.6967 278.506 93.0929 277.893 93.4676C277.28 93.8307 276.585 94.1456 275.799 94.3927C275.014 94.6381 274.159 94.7657 273.243 94.7657C271.458 94.7657 269.846 94.2982 268.407 93.3632C266.967 92.4265 265.74 91.024 264.734 89.1637C263.722 87.3037 262.951 84.9875 262.412 82.1924C261.876 79.4071 261.607 76.1677 261.607 72.4721C261.607 68.7055 261.903 65.3599 262.496 62.4354C263.088 59.5109 263.915 57.0539 264.976 55.066C266.037 53.0782 267.311 51.5796 268.799 50.5517C270.281 49.5222 271.92 49.0065 273.712 49.0065C274.435 49.0065 275.131 49.1126 275.806 49.3232C276.481 49.5222 277.101 49.7906 277.672 50.1305C278.245 50.4571 278.754 50.8435 279.216 51.2761C279.671 51.7204 279.994 52.0951 280.174 52.3985C280.353 52.7152 280.477 52.9722 280.546 53.1711C280.614 53.3816 280.67 53.6386 280.704 53.9553C280.745 54.2819 280.78 54.6566 280.801 55.0893C280.821 55.522 280.828 56.0491 280.828 56.6924C280.828 57.3705 280.815 57.9557 280.786 58.4349C280.759 58.914 280.711 59.3003 280.649 59.5921C280.58 59.8855 280.497 60.1077 280.407 60.2353C280.312 60.3763 280.201 60.4459 280.084 60.4459C279.884 60.4459 279.629 60.2486 279.32 59.8507C279.009 59.4528 278.61 59.0085 278.121 58.5161C277.631 58.0253 277.046 57.5811 276.364 57.1832C275.688 56.7853 274.883 56.5864 273.939 56.5864C272.905 56.5864 271.983 56.9494 271.169 57.6623C270.356 58.3885 269.668 59.4065 269.095 60.7394C268.524 62.0839 268.09 63.6987 267.794 65.5936C267.497 67.477 267.352 69.6174 267.352 71.9914C267.352 74.5893 267.512 76.8457 267.828 78.7523C268.145 80.6472 268.592 82.2272 269.178 83.4557C269.757 84.6826 270.466 85.6076 271.293 86.2044C272.12 86.8129 273.05 87.1163 274.083 87.1163C275.02 87.1163 275.834 86.9289 276.522 86.5542C277.205 86.1812 277.79 85.7601 278.279 85.3141C278.775 84.8582 279.175 84.4488 279.492 84.0874C279.809 83.7243 280.05 83.5369 280.229 83.5369C280.36 83.5369 280.47 83.5833 280.546 83.6778C280.628 83.7707 280.698 83.9464 280.752 84.2266C280.801 84.4968 280.842 84.8814 280.869 85.3739C280.897 85.8762 280.91 86.531 280.91 87.3617ZM307.73 90.7073C307.89 91.5262 307.992 92.1811 308.034 92.6603C308.075 93.141 308.021 93.5024 307.875 93.7494C307.724 93.9833 307.462 94.134 307.083 94.1937C306.711 94.2519 306.188 94.2751 305.533 94.2751C304.844 94.2751 304.307 94.2635 303.928 94.2287C303.542 94.1937 303.252 94.1224 303.046 94.0181C302.846 93.912 302.709 93.7727 302.626 93.5854C302.544 93.4096 302.474 93.1642 302.426 92.8707L300.711 83.958H290.858L289.212 92.6255C289.157 92.9537 289.088 93.2223 288.998 93.4328C288.916 93.655 288.772 93.8191 288.578 93.9468C288.385 94.0761 288.11 94.1573 287.751 94.2053C287.393 94.2519 286.925 94.2751 286.346 94.2751C285.726 94.2751 285.244 94.2403 284.892 94.1689C284.541 94.0993 284.301 93.9352 284.169 93.6782C284.031 93.4096 283.983 93.0349 284.024 92.5558C284.066 92.0767 284.169 91.445 284.328 90.6377L292.375 51.2761C292.45 50.8899 292.547 50.5749 292.657 50.3411C292.761 50.094 292.932 49.92 293.167 49.7906C293.408 49.6614 293.732 49.5802 294.152 49.5453C294.565 49.5106 295.117 49.499 295.805 49.499C296.598 49.499 297.232 49.5106 297.699 49.5453C298.175 49.5802 298.54 49.6614 298.802 49.7906C299.064 49.92 299.25 50.1057 299.367 50.3527C299.478 50.6097 299.581 50.9479 299.656 51.3806L307.73 90.7073ZM295.744 58.1431H295.723L292.085 77.0098H299.415L295.744 58.1431ZM327.132 53.4048C327.132 54.0713 327.118 54.6334 327.083 55.1125C327.049 55.58 327.001 55.9547 326.931 56.2365C326.863 56.5283 326.78 56.739 326.676 56.8682C326.58 57.0074 326.463 57.0788 326.346 57.0788H319.815V92.8359C319.815 93.0581 319.774 93.2687 319.684 93.456C319.594 93.6318 319.45 93.7843 319.25 93.9004C319.05 94.0065 318.775 94.0993 318.43 94.1689C318.086 94.2403 317.659 94.2751 317.148 94.2751C316.639 94.2751 316.212 94.2403 315.867 94.1689C315.523 94.0993 315.247 94.0065 315.047 93.9004C314.848 93.7843 314.703 93.6318 314.613 93.456C314.524 93.2687 314.483 93.0581 314.483 92.8359V57.0788H307.951C307.82 57.0788 307.703 57.0074 307.607 56.8682C307.518 56.739 307.435 56.5283 307.366 56.2365C307.304 55.9547 307.249 55.58 307.214 55.1125C307.18 54.6334 307.166 54.0713 307.166 53.4048C307.166 52.7268 307.18 52.1416 307.214 51.6624C307.249 51.1834 307.304 50.797 307.366 50.5152C307.435 50.2234 307.518 50.0244 307.607 49.8952C307.703 49.7674 307.82 49.7094 307.951 49.7094H326.346C326.463 49.7094 326.573 49.7674 326.676 49.8952C326.78 50.0244 326.863 50.2234 326.931 50.5152C327.001 50.797 327.049 51.1834 327.083 51.6624C327.118 52.1416 327.132 52.7268 327.132 53.4048ZM347.311 90.5199C347.311 91.1864 347.296 91.7368 347.262 92.1927C347.228 92.6371 347.179 93.0001 347.111 93.2687C347.041 93.5504 346.959 93.7494 346.856 93.8771C346.759 94.0065 346.642 94.0645 346.525 94.0645H333.422C332.98 94.0645 332.608 93.8423 332.306 93.398C332.002 92.9537 331.851 92.2275 331.851 91.2228V52.5511C331.851 51.5448 332.002 50.8203 332.306 50.3759C332.608 49.9316 332.98 49.7094 333.422 49.7094H346.463C346.58 49.7094 346.691 49.7674 346.786 49.8836C346.876 50.0012 346.959 50.2002 347.028 50.4805C347.09 50.7738 347.145 51.1353 347.179 51.5796C347.214 52.0371 347.228 52.5975 347.228 53.2888C347.228 53.9321 347.214 54.4693 347.179 54.9251C347.145 55.3694 347.097 55.7326 347.028 56.0011C346.959 56.2829 346.876 56.4819 346.786 56.6095C346.691 56.739 346.58 56.7969 346.463 56.7969H337.142V67.6047H344.996C345.12 67.6047 345.23 67.6643 345.327 67.792C345.429 67.9214 345.512 68.1086 345.582 68.3772C345.65 68.6342 345.699 68.9857 345.733 69.4416C345.767 69.886 345.781 70.4247 345.781 71.0564C345.781 71.7228 345.767 72.2733 345.733 72.7059C345.699 73.1386 345.65 73.4884 345.582 73.7471C345.512 74.0157 345.429 74.2031 345.327 74.3075C345.23 74.4251 345.12 74.4832 344.996 74.4832H337.142V86.9754H346.525C346.649 86.9754 346.759 87.0351 346.856 87.1627C346.959 87.2919 347.041 87.4909 347.111 87.7712C347.179 88.0397 347.228 88.4028 347.262 88.8471C347.296 89.3031 347.311 89.8534 347.311 90.5199ZM373.98 56.6095C373.98 57.2644 373.966 57.8381 373.931 58.3172C373.897 58.798 373.849 59.1826 373.786 59.4644C373.725 59.7563 373.655 59.9551 373.566 60.0613C373.477 60.1773 373.373 60.2353 373.256 60.2353C373.077 60.2353 372.794 60.0248 372.408 59.6169C372.016 59.2075 371.499 58.7499 370.852 58.2707C370.204 57.7917 369.439 57.3357 368.544 56.9262C367.648 56.5167 366.607 56.3061 365.423 56.3061C364.162 56.3061 363.019 56.6808 361.999 57.417C360.972 58.1663 360.097 59.2191 359.374 60.5752C358.65 61.9446 358.093 63.5693 357.7 65.4875C357.307 67.3941 357.114 69.4996 357.114 71.8156C357.114 74.3539 357.314 76.5887 357.707 78.5301C358.106 80.4599 358.664 82.0747 359.374 83.3844C360.091 84.6826 360.952 85.6657 361.951 86.3321C362.956 86.9986 364.066 87.3269 365.272 87.3269C365.863 87.3269 366.449 87.2091 367.028 86.987C367.614 86.7532 368.151 86.4034 368.647 85.9457V75.6056H363.707C363.466 75.6056 363.281 75.3486 363.143 74.8348C363.011 74.3191 362.943 73.4536 362.943 72.2136C362.943 71.582 362.956 71.0448 362.991 70.6121C363.026 70.1793 363.08 69.8278 363.143 69.5709C363.211 69.3024 363.294 69.115 363.383 68.9857C363.48 68.8563 363.59 68.7983 363.707 68.7983H372.526C372.739 68.7983 372.932 68.8563 373.098 68.9857C373.27 69.115 373.414 69.3024 373.545 69.5593C373.669 69.8046 373.773 70.108 373.835 70.4595C373.903 70.8226 373.938 71.2322 373.938 71.688V89.3743C373.938 90.064 373.869 90.6609 373.725 91.1747C373.587 91.6904 373.297 92.0999 372.857 92.3917C372.422 92.6967 371.878 93.0001 371.231 93.3284C370.583 93.6434 369.915 93.9236 369.218 94.1456C368.53 94.3795 367.827 94.5553 367.118 94.6613C366.415 94.7773 365.705 94.837 364.988 94.837C362.902 94.837 361.035 94.3214 359.381 93.3035C357.734 92.2873 356.336 90.8133 355.192 88.8819C354.048 86.9521 353.173 84.6012 352.567 81.8177C351.961 79.0341 351.658 75.8875 351.658 72.3661C351.658 68.7287 351.982 65.4643 352.63 62.5762C353.27 59.6749 354.186 57.218 355.371 55.1954C356.556 53.1711 357.982 51.6276 359.663 50.5517C361.337 49.474 363.204 48.9369 365.258 48.9369C366.395 48.9369 367.421 49.0645 368.35 49.3348C369.274 49.6034 370.086 49.92 370.783 50.3047C371.472 50.6793 372.05 51.0887 372.505 51.5216C372.967 51.9658 373.283 52.3405 373.463 52.6687C373.649 52.9837 373.779 53.4398 373.856 54.0249C373.938 54.5985 373.98 55.464 373.98 56.6095ZM404.457 71.3714C404.457 75.0452 404.189 78.3311 403.652 81.2324C403.114 84.1338 402.315 86.6023 401.247 88.6133C400.187 90.6377 398.87 92.1811 397.307 93.2455C395.736 94.3098 393.924 94.837 391.864 94.837C389.831 94.837 388.061 94.3795 386.552 93.4792C385.037 92.579 383.776 91.2096 382.763 89.3511C381.757 87.5025 380.999 85.1517 380.496 82.2968C379.993 79.4436 379.739 76.0631 379.739 72.1555C379.739 68.5762 380.007 65.3483 380.544 62.4818C381.082 59.6169 381.881 57.1832 382.949 55.1705C384.01 53.1595 385.326 51.616 386.89 50.5517C388.46 49.474 390.279 48.9369 392.353 48.9369C394.331 48.9369 396.074 49.3812 397.589 50.2698C399.098 51.1585 400.365 52.5279 401.378 54.3879C402.398 56.2365 403.163 58.5642 403.679 61.3826C404.196 64.2126 404.457 67.535 404.457 71.3714ZM398.877 71.8272C398.877 69.4996 398.767 67.3825 398.554 65.4759C398.34 63.5693 397.975 61.933 397.458 60.5752C396.942 59.2191 396.252 58.1663 395.391 57.417C394.53 56.6808 393.455 56.3061 392.167 56.3061C390.865 56.3061 389.777 56.7274 388.908 57.5579C388.034 58.3885 387.324 59.5109 386.787 60.9035C386.249 62.2944 385.87 63.9208 385.65 65.781C385.429 67.6527 385.319 69.6174 385.319 71.6996C385.319 74.1201 385.429 76.2969 385.643 78.2267C385.856 80.1565 386.221 81.8061 386.731 83.1854C387.241 84.5548 387.923 85.596 388.784 86.3205C389.646 87.0351 390.728 87.3965 392.029 87.3965C393.331 87.3965 394.42 86.987 395.288 86.1563C396.163 85.3391 396.872 84.215 397.409 82.8008C397.947 81.385 398.326 79.7353 398.547 77.8521C398.767 75.9687 398.877 73.9577 398.877 71.8272ZM393.421 37.7429C393.594 37.3914 393.765 37.1228 393.93 36.9122C394.103 36.7134 394.302 36.5492 394.537 36.4331C394.771 36.327 395.06 36.2457 395.398 36.2093C395.736 36.1745 396.149 36.1629 396.645 36.1629C397.265 36.1629 397.747 36.2341 398.092 36.3735C398.437 36.5027 398.671 36.6785 398.802 36.9006C398.926 37.1228 398.953 37.3682 398.891 37.6367C398.822 37.907 398.692 38.1987 398.505 38.4906L394.02 45.3459C393.889 45.5565 393.752 45.7322 393.607 45.8831C393.47 46.0356 393.297 46.1532 393.097 46.2578C392.89 46.3638 392.649 46.4335 392.367 46.4799C392.084 46.5264 391.733 46.5512 391.319 46.5512C390.858 46.5512 390.493 46.5147 390.217 46.4451C389.942 46.3754 389.749 46.2694 389.632 46.1184C389.515 45.9776 389.473 45.7902 389.501 45.5565C389.529 45.3227 389.625 45.0525 389.783 44.7375L393.421 37.7429ZM429.934 92.9073C429.934 93.1526 429.907 93.3632 429.851 93.5388C429.796 93.713 429.672 93.8539 429.472 93.9717C429.266 94.0761 428.976 94.1573 428.584 94.2053C428.191 94.2519 427.661 94.2751 426.992 94.2751C426.428 94.2751 425.979 94.2519 425.642 94.2053C425.305 94.1573 425.036 94.0761 424.843 93.9468C424.65 93.8191 424.512 93.6666 424.43 93.4676C424.354 93.2687 424.285 93.0349 424.23 92.7664L421.873 82.8357C421.591 81.7115 421.316 80.7069 421.047 79.8415C420.778 78.9628 420.475 78.2383 420.144 77.6531C419.814 77.0678 419.428 76.6351 418.994 76.3317C418.567 76.0382 418.064 75.8875 417.499 75.8875H415.839V92.8359C415.839 93.0581 415.797 93.2687 415.708 93.4444C415.618 93.6318 415.474 93.7843 415.274 93.9004C415.073 94.0065 414.805 94.0993 414.468 94.1689C414.137 94.2403 413.702 94.2751 413.186 94.2751C412.676 94.2751 412.25 94.2403 411.905 94.1689C411.56 94.0993 411.292 94.0065 411.091 93.9004C410.892 93.7843 410.748 93.6318 410.672 93.456C410.589 93.2687 410.548 93.0581 410.548 92.8359V52.5511C410.548 51.5448 410.699 50.8203 411.003 50.3759C411.305 49.9316 411.677 49.7094 412.119 49.7094H418.883C419.566 49.7094 420.137 49.7327 420.579 49.779C421.019 49.8256 421.426 49.8836 421.791 49.9432C422.838 50.2002 423.782 50.6329 424.622 51.253C425.463 51.8614 426.18 52.6688 426.765 53.6618C427.35 54.6566 427.798 55.8271 428.108 57.1832C428.418 58.5393 428.57 60.0961 428.57 61.8617C428.57 63.3356 428.46 64.6934 428.24 65.9086C428.012 67.1371 427.688 68.2247 427.255 69.1845C426.827 70.1445 426.297 70.9735 425.663 71.6764C425.029 72.3893 424.306 72.9514 423.499 73.3956C423.892 73.7106 424.257 74.0969 424.602 74.5529C424.946 75.0104 425.27 75.5708 425.573 76.2256C425.876 76.8805 426.166 77.6183 426.434 78.4605C426.703 79.291 426.965 80.2377 427.219 81.2905L429.431 90.0524C429.631 90.9177 429.769 91.5494 429.83 91.959C429.9 92.3569 429.934 92.6719 429.934 92.9073ZM423.073 62.7869C423.073 61.3247 422.879 60.0845 422.487 59.0898C422.094 58.0835 421.454 57.3705 420.565 56.961C420.296 56.8433 419.993 56.7622 419.648 56.6924C419.304 56.6211 418.829 56.5864 418.222 56.5864H415.839V69.1498H418.546C419.304 69.1498 419.959 68.9973 420.523 68.6823C421.095 68.3772 421.564 67.9446 421.943 67.3825C422.322 66.8337 422.604 66.1556 422.79 65.3831C422.976 64.6106 423.073 63.7451 423.073 62.7869ZM440.764 92.8359C440.764 93.0581 440.723 93.2687 440.633 93.456C440.543 93.6318 440.399 93.7843 440.198 93.9004C439.999 94.0065 439.724 94.0993 439.393 94.1689C439.055 94.2403 438.621 94.2751 438.097 94.2751C437.587 94.2751 437.161 94.2403 436.816 94.1689C436.471 94.0993 436.196 94.0065 435.997 93.9004C435.797 93.7843 435.652 93.6318 435.562 93.456C435.472 93.2687 435.431 93.0581 435.431 92.8359V50.9363C435.431 50.7141 435.472 50.5036 435.562 50.3163C435.652 50.1422 435.797 49.9896 436.01 49.872C436.216 49.7558 436.485 49.673 436.823 49.6034C437.161 49.5337 437.587 49.499 438.097 49.499C438.621 49.499 439.055 49.5337 439.393 49.6034C439.724 49.673 439.999 49.7558 440.198 49.872C440.399 49.9896 440.543 50.1422 440.633 50.3163C440.723 50.5036 440.764 50.7141 440.764 50.9363V92.8359ZM466.13 87.3617C466.13 87.9352 466.123 88.426 466.103 88.8239C466.082 89.2217 466.048 89.5732 466.006 89.8534C465.972 90.1452 465.917 90.3923 465.848 90.6029C465.779 90.8017 465.676 91.0356 465.525 91.2925C465.379 91.5494 465.09 91.8893 464.67 92.2989C464.242 92.6967 463.726 93.0929 463.113 93.4676C462.499 93.8307 461.804 94.1456 461.018 94.3927C460.233 94.6381 459.379 94.7657 458.463 94.7657C456.678 94.7657 455.066 94.2982 453.627 93.3632C452.186 92.4265 450.96 91.024 449.954 89.1637C448.941 87.3037 448.17 84.9875 447.632 82.1924C447.095 79.4071 446.827 76.1677 446.827 72.4721C446.827 68.7055 447.122 65.3599 447.715 62.4354C448.308 59.5109 449.135 57.0539 450.195 55.066C451.257 53.0782 452.531 51.5796 454.019 50.5517C455.5 49.5222 457.14 49.0065 458.932 49.0065C459.654 49.0065 460.35 49.1126 461.025 49.3232C461.701 49.5222 462.321 49.7906 462.892 50.1305C463.464 50.4571 463.974 50.8435 464.436 51.2761C464.891 51.7204 465.214 52.0951 465.394 52.3985C465.572 52.7152 465.696 52.9722 465.766 53.1711C465.834 53.3816 465.89 53.6386 465.924 53.9553C465.965 54.2819 465.999 54.6566 466.021 55.0893C466.041 55.522 466.048 56.0491 466.048 56.6924C466.048 57.3705 466.034 57.9557 466.006 58.4349C465.979 58.914 465.931 59.3003 465.868 59.5921C465.8 59.8855 465.717 60.1077 465.627 60.2353C465.531 60.3763 465.421 60.4459 465.304 60.4459C465.104 60.4459 464.849 60.2486 464.539 59.8507C464.229 59.4528 463.829 59.0085 463.34 58.5161C462.851 58.0253 462.265 57.5811 461.584 57.1832C460.908 56.7853 460.102 56.5864 459.158 56.5864C458.125 56.5864 457.202 56.9494 456.389 57.6623C455.576 58.3885 454.887 59.4065 454.315 60.7394C453.744 62.0839 453.309 63.6987 453.013 65.5936C452.716 67.477 452.572 69.6174 452.572 71.9914C452.572 74.5893 452.731 76.8457 453.047 78.7523C453.365 80.6472 453.812 82.2272 454.398 83.4557C454.977 84.6826 455.686 85.6076 456.513 86.2044C457.34 86.8129 458.27 87.1163 459.303 87.1163C460.24 87.1163 461.053 86.9289 461.742 86.5542C462.424 86.1812 463.009 85.7601 463.498 85.3141C463.994 84.8582 464.395 84.4488 464.711 84.0874C465.028 83.7243 465.27 83.5369 465.448 83.5369C465.579 83.5369 465.69 83.5833 465.766 83.6778C465.848 83.7707 465.917 83.9464 465.972 84.2266C466.021 84.4968 466.062 84.8814 466.089 85.3739C466.116 85.8762 466.13 86.531 466.13 87.3617Z" fill="#231F20"/>
<path d="M494.735 71.3714C494.735 75.0452 494.467 78.3311 493.93 81.2324C493.392 84.1338 492.593 86.6023 491.525 88.6133C490.464 90.6377 489.148 92.1811 487.585 93.2455C486.014 94.3098 484.201 94.837 482.142 94.837C480.109 94.837 478.339 94.3795 476.83 93.4792C475.315 92.579 474.054 91.2096 473.04 89.3511C472.035 87.5025 471.277 85.1517 470.774 82.2968C470.271 79.4436 470.016 76.0631 470.016 72.1555C470.016 68.5762 470.285 65.3483 470.822 62.4818C471.36 59.617 472.159 57.1832 473.227 55.1706C474.287 53.1595 475.604 51.616 477.168 50.5517C478.738 49.474 480.557 48.9369 482.631 48.9369C484.608 48.9369 486.351 49.3812 487.867 50.2698C489.375 51.1585 490.643 52.5279 491.655 54.3879C492.676 56.2365 493.44 58.5642 493.957 61.3826C494.473 64.2126 494.735 67.535 494.735 71.3714ZM489.155 71.8272C489.155 69.4996 489.044 67.3825 488.832 65.4759C488.618 63.5693 488.252 61.933 487.736 60.5752C487.219 59.2191 486.53 58.1663 485.669 57.417C484.808 56.6808 483.733 56.3061 482.445 56.3061C481.143 56.3061 480.054 56.7274 479.186 57.5579C478.311 58.3885 477.601 59.5109 477.064 60.9035C476.526 62.2944 476.147 63.9208 475.928 65.781C475.707 67.6527 475.597 69.6174 475.597 71.6996C475.597 74.1201 475.707 76.2969 475.921 78.2267C476.134 80.1565 476.499 81.8061 477.009 83.1854C477.518 84.5549 478.201 85.596 479.062 86.3205C479.923 87.0351 481.005 87.3965 482.307 87.3965C483.608 87.3965 484.697 86.987 485.565 86.1564C486.44 85.3391 487.15 84.215 487.687 82.8008C488.225 81.385 488.604 79.7353 488.825 77.8521C489.044 75.9687 489.155 73.9577 489.155 71.8272Z" fill="#231F20"/>
<path fill-rule="evenodd" clip-rule="evenodd" d="M35.6878 50.5194L35.6879 50.515C35.781 46.4457 36.2022 42.1364 36.3544 37.9503C36.4437 35.4949 36.7754 34.0961 36.8718 32.4129C36.9504 31.0364 36.6707 31.6584 36.7944 30.5284C36.8563 29.9625 37.1432 29.6117 37.2045 28.8153C36.6046 27.5758 36.7016 28.1533 35.968 27.0968C35.9187 27.1953 35.8759 27.3467 35.8511 27.43L35.5671 28.4531C33.9451 35.8118 34.4883 41.0213 34.1141 48.6819L34.1134 48.6961L34.0978 48.6831L35.6878 50.5194Z" fill="white"/>
<path fill-rule="evenodd" clip-rule="evenodd" d="M42.8388 86.4095C42.1531 84.3441 41.495 79.1318 40.0778 78.1869C39.8157 81.8715 39.8998 84.9157 40.2968 88.4402C40.2936 88.4477 40.2896 88.4555 40.2861 88.4631L42.8388 86.4095Z" fill="white"/>
<path fill-rule="evenodd" clip-rule="evenodd" d="M74.4039 86.9272L74.4034 86.9104L74.3168 83.3598C73.4587 83.9109 73.6727 84.3196 73.1681 85.7712L73.1545 85.81L74.4039 86.9272Z" fill="white"/>
<path fill-rule="evenodd" clip-rule="evenodd" d="M63.7763 93.166L64.4628 93.7356L64.6957 113.329C66.477 111.924 65.7389 110.911 65.5687 104.947C65.495 102.365 65.5276 97.94 65.7761 95.5334C66.149 95.2065 66.9955 95.5857 67.9017 96.18L63.7763 93.166Z" fill="white"/>
<path fill-rule="evenodd" clip-rule="evenodd" d="M31.7432 62.1324L44.6448 75.8643C45.7554 76.9846 46.4726 77.6425 46.9351 78.1017L46.9339 78.0948L49.5827 80.3152L47.5961 82.2266L47.5886 82.1799L42.8546 86.4575L42.8419 86.4189L42.8388 86.4096C39.9276 88.7515 37.333 91.3151 34.4015 93.7813C31.0717 97.2525 18.4811 105.876 14.0746 105.242C14.0205 101.127 20.7431 90.2428 22.0864 88.1582C23.986 85.2103 29.7494 76.5089 31.9378 73.9514C31.2568 72.6702 31.6945 72.8019 31.2002 71.3784C26.467 75.3711 12.8328 92.9228 10.379 101.108C8.8576 106.183 9.75282 110.373 12.1675 112.113C16.0666 114.922 24.2984 111.014 28.285 109.019C30.3163 108.002 34.107 105.532 35.8082 105.106L40.6527 101.963L44.0389 99.8338C45.6342 98.2487 48.1253 96.9176 49.7908 95.6269C51.6409 94.1931 54.0411 91.9298 55.8632 90.9221C56.6787 89.8443 58.045 88.4485 59.0283 89.2261L63.5663 92.9917L63.7763 93.166L67.9017 96.18C67.9513 96.2125 68.0011 96.2457 68.0511 96.2795C69.1913 97.0507 70.3896 98.1168 70.8363 98.5183L74.8896 101.348L79.1045 103.941C81.5641 104.952 84.5431 106.996 87.2055 108.382C89.962 109.818 92.8038 111.169 95.6196 112.06C98.4506 112.954 102.291 113.994 104.874 111.816C107.532 109.575 107.762 104.757 105.957 99.9219C102.814 91.5044 94.1339 80.7301 88.8574 74.9905C87.0053 72.9758 84.2725 69.2654 82.2688 67.9153C82.3622 72.0599 83.0478 71.396 84.4995 73.4058C88.6338 79.1293 102.993 99.1445 102.625 105.242C97.1832 105.888 80.0311 93.0855 78.9207 90.5538C77.5102 90.1618 75.8012 87.9476 74.4068 87.0474L74.4039 86.9272L73.1545 85.81L73.1497 85.8238L67.4529 80.7766L80.7723 66.6592C80.7837 66.573 80.8431 66.5733 80.8624 66.5101C84.0781 63.0702 87.3602 59.3891 90.3175 55.5914L99.2189 44.168C105.07 36.0198 110.513 28.4623 114.892 17.7289C117.61 11.0649 117.222 2.7639 111.266 3.04601C104.883 3.34827 93.9496 12.0665 88.0949 16.7304C86.2194 18.2244 84.5316 19.6718 82.7052 21.1127C80.9039 22.5337 77.5853 24.6097 78.4175 26.1083C78.8414 26.8715 81.4296 24.2832 81.9849 23.8983C87.7485 19.9032 108.235 5.61154 112.244 10.0865C110.534 17.7823 96.9602 33.4796 91.9182 38.9734C90.1985 40.8473 85.7486 46.1515 84.1772 46.9944C83.4012 48.2797 81.3572 50.1139 80.1584 51.3741C78.7505 52.8539 77.3609 54.1309 75.9946 55.5634C73.3692 58.3159 70.454 60.8948 67.7466 63.5362L66.6933 64.5584C64.7794 66.1985 62.7245 68.3191 60.7413 70.1301C59.6347 71.1405 58.8334 72.5922 57.5307 71.5702C56.3295 70.6279 43.6303 58.7988 42.7976 57.152C41.862 57.1098 38.7449 53.8587 38.1187 52.6984L35.6872 50.5419L35.6877 50.5195L34.0978 48.6831C33.4247 48.1227 28.3011 43.1074 27.8722 41.9957C25.6725 40.8572 17.9903 30.8147 15.2457 27.7334C12.3301 24.4601 5.74568 15.1308 4.4918 10.0865C7.57829 6.573 22.7839 15.9364 27.0117 18.548C29.1849 19.8905 31.6432 22.0616 33.8821 23.1283C33.7024 20.1164 33.4519 20.4855 30.0955 17.8304C24.1815 13.1517 10.0976 1.66501 4.12826 3.17936C-0.74497 4.41564 -0.399442 11.8406 1.83395 17.6743C5.97602 28.4938 16.9971 44.2293 23.6333 52.1614L31.7432 62.1324Z" fill="#AF2323"/>
<path fill-rule="evenodd" clip-rule="evenodd" d="M27.8722 41.9957C28.3044 43.1159 33.5047 48.2011 34.1133 48.6961C34.489 41.0277 33.9441 35.8164 35.5671 28.4532L35.851 27.43C35.8759 27.3467 35.9187 27.1953 35.968 27.0968C36.7016 28.1533 36.6046 27.5758 37.2045 28.8153C37.1432 29.6117 36.8563 29.9625 36.7944 30.5284C36.6707 31.6584 36.9504 31.0364 36.8717 32.413C36.7754 34.0961 36.4437 35.4949 36.3544 37.9503C36.2018 42.1455 35.779 46.4647 35.6872 50.5419L38.1187 52.6983C38.0647 48.5125 38.3415 36.6874 37.8688 33.3465C37.4565 30.4323 38.7383 32.1288 37.6476 29.0976C38.4374 27.6414 39.1725 25.8612 40.206 24.8303C40.221 33.5706 40.4389 42.0897 42.8564 49.6644C43.5238 51.7557 44.7757 54.0472 45.1742 55.5082L42.7976 57.152C43.6302 58.7988 56.3295 70.6279 57.5307 71.5702C58.8334 72.5922 59.6347 71.1405 60.7413 70.1301C62.7245 68.3191 64.7793 66.1985 66.6933 64.5584L65.552 46.0473C67.4942 45.1872 67.1888 45.3069 68.0042 42.8399C68.2032 44.4529 68.2077 46.7983 68.6102 48.1711C69.3 50.5239 69.5858 48.4509 68.9994 52.6486C68.5736 55.6974 67.8476 60.5597 67.7465 63.5362C70.454 60.8948 73.3691 58.3159 75.9945 55.5634C77.3609 54.1309 78.7504 52.8539 80.1584 51.3741C81.3572 50.1139 83.4012 48.2797 84.1772 46.9943L80.1006 30.9491C79.7394 30.2825 77.7886 28.4832 77.2752 28.1059L77.3099 31.0684L76.2119 29.8722L75.1166 30.9369C74.4024 28.7146 73.4427 27.836 72.7794 25.7827L75.7501 28.2593L76.1601 24.9366C76.4791 22.9284 76.8171 22.8522 77.2203 19.8224C77.8197 15.3176 77.3836 14.398 76.8868 10.3182C72.3192 8.51579 70.099 9.00163 70.7399 17.6365C70.9618 20.6265 72.8478 21.8605 71.8314 24.165C71.3998 25.1435 69.1168 27.8739 68.3729 28.3714L68.2531 24.3891C66.6871 23.003 63.6177 20.6627 61.6607 19.894C60.2225 22.751 59.7424 25.5333 58.5546 28.9085C57.6926 20.8564 59.537 25.7948 58.1993 21.2989L61.2821 18.4938C61.305 17.3823 61.3188 16.0429 61.4618 15.1376C61.7595 13.2537 61.9861 13.7552 62.4178 12.7304C62.997 11.3552 63.2204 8.47779 63.1625 6.52659C63.034 2.1924 58.0593 -2.83935 55.0264 3.31729C53.3903 6.63839 55.6605 12.9239 55.8934 15.8778C56.2387 20.2548 56.4008 18.5361 57.4542 21.3294C56.7785 24.2306 56.8586 21.7871 57.1002 24.5525C57.237 26.1184 56.8304 27.6987 56.4998 29.2066L55.509 19.1294C52.8335 20.9384 53.27 21.6926 49.3078 21.9425L48.0491 26.8071C46.6512 26.4214 45.5102 25.9411 43.9143 25.8375C41.7148 25.6946 41.508 25.5545 40.193 23.5781C40.2879 21.8517 40.7551 20.6129 40.9228 19.3513C41.098 18.0326 40.731 16.1479 40.6669 14.1261C40.564 10.8838 38.8964 9.02658 36.9242 9.86288C34.4487 10.9127 34.7733 13.1374 34.5831 17.2228C34.4187 20.7558 35.5465 22.9379 35.7602 26.407L31.1857 29.4066C29.0031 30.837 30.3777 32.7978 28.3948 39.1008C27.7571 41.1277 28.08 39.5639 27.8722 41.9957Z" fill="#231F20"/>
<path fill-rule="evenodd" clip-rule="evenodd" d="M56.4641 77.0948C54.5875 79.6773 35.1899 95.1353 32.4596 97.2326C30.5741 98.681 25.2282 102.064 24.0437 103.637C26.8782 102.864 38.3002 94.5766 41.6519 92.1611C44.3794 90.1953 47.4835 87.9222 50.0856 85.7401C51.2697 84.7472 57.8176 78.8668 58.2845 78.7856L74.8397 92.0309C77.5441 94.0754 80.5052 96.0785 83.4668 98.0795C86.0087 99.7967 90.08 102.742 92.7301 103.73L84.4491 97.3164C81.9881 95.4958 61.752 79.5274 60.2739 77.0948L70.2075 67.2999C73.5549 63.8873 76.6382 60.8454 79.8601 57.1856C87.2375 48.8053 89.3284 46.0819 95.8318 37.5259C96.2596 36.9632 96.4858 36.7159 96.8813 36.1585L88.4602 45.2458C82.4772 51.8679 75.1006 59.8686 68.8496 65.899C67.8143 66.8977 58.939 75.3884 58.444 75.4287C57.185 75.5311 40.2388 58.1786 38.0758 55.9683L18.7853 34.2965C22.5758 42.0809 41.1043 61.7641 46.3308 67.1583C48.0163 68.8977 49.6356 70.4687 51.3422 72.124C52.9462 73.6799 55.0534 75.2843 56.4641 77.0948Z" fill="white"/>
<path fill-rule="evenodd" clip-rule="evenodd" d="M44.0389 99.8338C44.0965 102.991 44.976 110.51 45.6078 113.34C46.1395 115.723 46.9556 116.674 47.0632 118.915C47.2048 121.865 47.283 123.604 48.6814 124.797C44.9933 131.246 49.636 131.47 51.3761 129.358C53.0877 127.28 50.431 127.398 54.0104 124.818C54.0875 118.2 53.9485 117.549 55.7956 115.277C55.9977 108.447 54.3104 102.354 55.8632 90.9221C54.0411 91.9298 51.641 94.1931 49.7908 95.6268C48.1253 96.9176 45.6342 98.2487 44.0389 99.8338Z" fill="#231F20"/>
<path fill-rule="evenodd" clip-rule="evenodd" d="M70.8363 98.5182C70.0128 97.7783 66.636 94.7796 65.7761 95.5334C65.5276 97.94 65.495 102.365 65.5687 104.947C65.7389 110.911 66.477 111.924 64.6957 113.329L64.4628 93.7356L59.0283 89.2261C60.1571 102.859 59.2756 94.8199 59.435 104.078C59.5629 111.506 60.5429 112.064 58.3327 117.824C59.9423 121.089 58.75 118.823 59.3379 122.43C59.6173 124.145 60.8534 124.174 62.1905 124.315C62.9438 127.876 64.9807 128.719 66.8812 126.904C65.5035 121.049 64.6075 123.641 63.8422 116.951C63.5097 114.045 63.7023 115.786 64.3215 113.512C64.8237 114.718 64.9891 114.779 65.0717 116.22C65.1453 117.505 65.0638 119.208 65.1488 120.718C65.7409 121.205 65.7089 120.895 66.4278 121.583C67.6598 122.762 68.1981 124.482 71.1192 123.735C70.8251 121.083 69.6626 120.012 68.8123 118.665C68.8163 115.105 69.8386 114.729 68.5827 111.723C68.8945 110.176 68.9864 110.908 69.3655 109.063L70.8363 98.5182Z" fill="#231F20"/>
<path fill-rule="evenodd" clip-rule="evenodd" d="M34.4015 93.7813C35.5056 92.8524 39.746 89.888 40.3299 88.5386C39.9329 85.0142 39.8157 81.8715 40.0778 78.1869C41.506 79.1391 42.1632 84.4255 42.8547 86.4575L47.7795 82.0074C47.592 78.0221 48.5565 79.8102 44.6448 75.8643L31.7432 62.1324C31.9487 64.7697 32.137 67.3667 32.4459 70.0614C32.7563 72.7708 32.8072 71.4522 33.2337 73.1837C33.6858 75.0197 34.3454 91.3657 34.4015 93.7813Z" fill="#231F20"/>
<path fill-rule="evenodd" clip-rule="evenodd" d="M78.9207 90.5538C79.4355 87.8647 80.1023 77.8375 80.1801 74.4064C80.2831 69.8692 80.0543 71.1031 81.012 69.4496L80.8624 66.5101C80.8431 66.5733 80.7837 66.573 80.7724 66.6592L67.4529 80.7766L73.1497 85.8238C73.678 84.3293 73.4483 83.9175 74.3168 83.3599L74.4068 87.0474C75.8012 87.9476 77.5102 90.1618 78.9207 90.5538Z" fill="#231F20"/>
<path fill-rule="evenodd" clip-rule="evenodd" d="M38.1187 52.6983C38.7449 53.8587 41.862 57.1098 42.7976 57.152L45.1743 55.5082C44.7757 54.0472 43.5238 51.7557 42.8564 49.6644C40.4389 42.0897 40.221 33.5706 40.206 24.8303C39.1725 25.8612 38.4374 27.6414 37.6476 29.0976C38.7384 32.1288 37.4566 30.4323 37.8688 33.3465C38.3415 36.6874 38.0647 48.5125 38.1187 52.6983Z" fill="white"/>
<path fill-rule="evenodd" clip-rule="evenodd" d="M79.1045 103.941L74.8896 101.348C75.2767 106.37 75.3506 112.636 76.2157 117.056C77.0128 117.12 78.0918 116.862 78.6068 116.958C79.8931 117.199 79.0129 117.93 83.1172 118.077C84.1302 118.113 84.8848 118.259 85.6078 117.57C85.3494 117.256 85.6637 117.508 85.0505 117.018C82.6466 115.095 82.3366 116.036 80.768 112.314C80.3522 111.327 80.6451 112.177 80.352 111.499C79.7604 110.131 79.2561 105.972 79.1045 103.941Z" fill="#231F20"/>
<path fill-rule="evenodd" clip-rule="evenodd" d="M35.8082 105.106C36.1732 106.543 35.7809 109.48 34.9749 110.472C34.159 111.477 32.7878 111.796 31.8543 113.072C32.4444 115.35 33.2923 115.262 36.3521 114.141C37.6811 113.654 37.4249 113.376 38.6363 113.2C39.5452 113.068 40.1493 112.649 41.0711 112.194C40.9935 110.105 40.5061 108.371 40.5837 106.891C40.7308 104.082 40.8955 105.329 40.6527 101.963L35.8082 105.106Z" fill="#231F20"/>
<path fill-rule="evenodd" clip-rule="evenodd" d="M66.6933 64.5584L67.7465 63.5362C67.8476 60.5597 68.5736 55.6974 68.9994 52.6486C69.5858 48.4509 69.3 50.5239 68.6102 48.1711C68.2077 46.7983 68.2032 44.4529 68.0042 42.8399C67.1888 45.3069 67.4943 45.1872 65.552 46.0473L66.6933 64.5584Z" fill="white"/>
<path d="M34.0968 48.6819L35.7705 50.6149" stroke="#231F20" stroke-width="0.5669" stroke-miterlimit="22.9256"/>
<path fill-rule="evenodd" clip-rule="evenodd" d="M74.0341 50.5542C74.9942 50.6016 75.9542 50.6492 76.9143 50.6966C76.4827 52.3128 75.7333 53.0527 74.7052 53.023C74.4815 52.2001 74.2578 51.3771 74.0341 50.5542Z" fill="white"/>
</svg>
